<mxfile host="app.diagrams.net" agent="Mozilla/5.0 (Macintosh; Intel Mac OS X 10_15_7) AppleWebKit/537.36 (KHTML, like Gecko) Chrome/132.0.0.0 Safari/537.36" version="26.0.9" pages="4">
  <diagram id="EiKmV2EXlXXOxFNy9SEy" name="Architecture">
    <mxGraphModel dx="2074" dy="1070" grid="1" gridSize="10" guides="1" tooltips="1" connect="1" arrows="1" fold="1" page="1" pageScale="1" pageWidth="827" pageHeight="1169" math="0" shadow="0">
      <root>
        <mxCell id="0" />
        <mxCell id="1" parent="0" />
        <mxCell id="jBWtm6QPgeTV9L7uCzy8-1" value="AWS Cloud" style="points=[[0,0],[0.25,0],[0.5,0],[0.75,0],[1,0],[1,0.25],[1,0.5],[1,0.75],[1,1],[0.75,1],[0.5,1],[0.25,1],[0,1],[0,0.75],[0,0.5],[0,0.25]];outlineConnect=0;gradientColor=none;html=1;whiteSpace=wrap;fontSize=12;fontStyle=0;container=1;pointerEvents=0;collapsible=0;recursiveResize=0;shape=mxgraph.aws4.group;grIcon=mxgraph.aws4.group_aws_cloud;strokeColor=#232F3E;fillColor=none;verticalAlign=top;align=left;spacingLeft=30;fontColor=#232F3E;dashed=0;" vertex="1" parent="1">
          <mxGeometry x="40" y="160" width="1040" height="600" as="geometry" />
        </mxCell>
        <mxCell id="jBWtm6QPgeTV9L7uCzy8-5" value="AWS Account" style="points=[[0,0],[0.25,0],[0.5,0],[0.75,0],[1,0],[1,0.25],[1,0.5],[1,0.75],[1,1],[0.75,1],[0.5,1],[0.25,1],[0,1],[0,0.75],[0,0.5],[0,0.25]];outlineConnect=0;gradientColor=none;html=1;whiteSpace=wrap;fontSize=12;fontStyle=0;container=1;pointerEvents=0;collapsible=0;recursiveResize=0;shape=mxgraph.aws4.group;grIcon=mxgraph.aws4.group_account;strokeColor=#CD2264;fillColor=none;verticalAlign=top;align=left;spacingLeft=30;fontColor=#CD2264;dashed=0;" vertex="1" parent="jBWtm6QPgeTV9L7uCzy8-1">
          <mxGeometry x="40" y="40" width="960" height="520" as="geometry" />
        </mxCell>
        <mxCell id="jBWtm6QPgeTV9L7uCzy8-6" value="Amazon QuickSight" style="sketch=0;points=[[0,0,0],[0.25,0,0],[0.5,0,0],[0.75,0,0],[1,0,0],[0,1,0],[0.25,1,0],[0.5,1,0],[0.75,1,0],[1,1,0],[0,0.25,0],[0,0.5,0],[0,0.75,0],[1,0.25,0],[1,0.5,0],[1,0.75,0]];outlineConnect=0;fontColor=#232F3E;fillColor=#8C4FFF;strokeColor=#ffffff;dashed=0;verticalLabelPosition=bottom;verticalAlign=top;align=center;html=1;fontSize=12;fontStyle=0;aspect=fixed;shape=mxgraph.aws4.resourceIcon;resIcon=mxgraph.aws4.quicksight;" vertex="1" parent="jBWtm6QPgeTV9L7uCzy8-5">
          <mxGeometry x="60" y="80" width="40" height="40" as="geometry" />
        </mxCell>
        <mxCell id="jBWtm6QPgeTV9L7uCzy8-2" value="QuickSight Management Region" style="points=[[0,0],[0.25,0],[0.5,0],[0.75,0],[1,0],[1,0.25],[1,0.5],[1,0.75],[1,1],[0.75,1],[0.5,1],[0.25,1],[0,1],[0,0.75],[0,0.5],[0,0.25]];outlineConnect=0;gradientColor=none;html=1;whiteSpace=wrap;fontSize=12;fontStyle=0;container=1;pointerEvents=0;collapsible=0;recursiveResize=0;shape=mxgraph.aws4.group;grIcon=mxgraph.aws4.group_region;strokeColor=#00A4A6;fillColor=none;verticalAlign=top;align=left;spacingLeft=30;fontColor=#147EBA;dashed=1;" vertex="1" parent="jBWtm6QPgeTV9L7uCzy8-5">
          <mxGeometry x="160" y="40" width="400" height="440" as="geometry" />
        </mxCell>
        <mxCell id="jBWtm6QPgeTV9L7uCzy8-7" value="QuickSight&lt;div&gt;Users/Groups&lt;/div&gt;&lt;div&gt;Management&lt;/div&gt;" style="sketch=0;points=[[0,0,0],[0.25,0,0],[0.5,0,0],[0.75,0,0],[1,0,0],[0,1,0],[0.25,1,0],[0.5,1,0],[0.75,1,0],[1,1,0],[0,0.25,0],[0,0.5,0],[0,0.75,0],[1,0.25,0],[1,0.5,0],[1,0.75,0]];outlineConnect=0;fontColor=#232F3E;fillColor=#8C4FFF;strokeColor=#ffffff;dashed=0;verticalLabelPosition=bottom;verticalAlign=top;align=center;html=1;fontSize=12;fontStyle=0;aspect=fixed;shape=mxgraph.aws4.resourceIcon;resIcon=mxgraph.aws4.quicksight;" vertex="1" parent="jBWtm6QPgeTV9L7uCzy8-2">
          <mxGeometry x="40" y="40" width="40" height="40" as="geometry" />
        </mxCell>
        <mxCell id="jBWtm6QPgeTV9L7uCzy8-21" value="" style="group" vertex="1" connectable="0" parent="jBWtm6QPgeTV9L7uCzy8-2">
          <mxGeometry x="120" y="40" width="120" height="360" as="geometry" />
        </mxCell>
        <mxCell id="jBWtm6QPgeTV9L7uCzy8-18" value="" style="rounded=0;whiteSpace=wrap;html=1;fillColor=none;strokeColor=#B266FF;dashed=1;" vertex="1" parent="jBWtm6QPgeTV9L7uCzy8-21">
          <mxGeometry width="120" height="360" as="geometry" />
        </mxCell>
        <mxCell id="jBWtm6QPgeTV9L7uCzy8-12" value="Dashboards" style="sketch=0;outlineConnect=0;fillColor=light-dark(#8c4fff, #ededed);strokeColor=light-dark(#8c4fff, #9577a3);dashed=0;verticalLabelPosition=bottom;verticalAlign=top;align=center;html=1;fontSize=12;fontStyle=0;aspect=fixed;pointerEvents=1;shape=mxgraph.aws4.metrics;strokeWidth=1;" vertex="1" parent="jBWtm6QPgeTV9L7uCzy8-21">
          <mxGeometry x="40" y="40" width="43.94" height="40" as="geometry" />
        </mxCell>
        <mxCell id="jBWtm6QPgeTV9L7uCzy8-10" value="Analyses" style="sketch=0;outlineConnect=0;fontColor=#232F3E;gradientColor=none;fillColor=#8C4FFF;strokeColor=none;dashed=0;verticalLabelPosition=bottom;verticalAlign=top;align=center;html=1;fontSize=12;fontStyle=0;aspect=fixed;pointerEvents=1;shape=mxgraph.aws4.opensearch_dashboards;" vertex="1" parent="jBWtm6QPgeTV9L7uCzy8-21">
          <mxGeometry x="35.52999999999997" y="120" width="52.88" height="40" as="geometry" />
        </mxCell>
        <mxCell id="jBWtm6QPgeTV9L7uCzy8-14" value="" style="shape=cylinder3;whiteSpace=wrap;html=1;boundedLbl=1;backgroundOutline=1;size=6.5;fillColor=none;strokeColor=light-dark(#8c4fff, #ededed);strokeWidth=3;" vertex="1" parent="jBWtm6QPgeTV9L7uCzy8-21">
          <mxGeometry x="41.97000000000003" y="200" width="40" height="40" as="geometry" />
        </mxCell>
        <mxCell id="jBWtm6QPgeTV9L7uCzy8-16" value="SPICE&lt;div&gt;Capacity&lt;/div&gt;" style="sketch=0;outlineConnect=0;fontColor=#232F3E;gradientColor=none;fillColor=light-dark(#8c4fff, #61820b);strokeColor=none;dashed=0;verticalLabelPosition=bottom;verticalAlign=top;align=center;html=1;fontSize=12;fontStyle=0;aspect=fixed;pointerEvents=1;shape=mxgraph.aws4.volume;strokeWidth=4;" vertex="1" parent="jBWtm6QPgeTV9L7uCzy8-21">
          <mxGeometry x="46.08000000000004" y="280" width="31.79" height="40" as="geometry" />
        </mxCell>
        <mxCell id="jBWtm6QPgeTV9L7uCzy8-19" value="DataSources&lt;div&gt;DataSets&lt;/div&gt;" style="text;html=1;align=center;verticalAlign=middle;resizable=0;points=[];autosize=1;strokeColor=none;fillColor=none;" vertex="1" parent="jBWtm6QPgeTV9L7uCzy8-21">
          <mxGeometry x="16.97" y="240" width="90" height="40" as="geometry" />
        </mxCell>
        <mxCell id="jBWtm6QPgeTV9L7uCzy8-20" value="QuickSight&lt;div&gt;Assets&lt;/div&gt;" style="text;html=1;align=center;verticalAlign=middle;resizable=0;points=[];autosize=1;strokeColor=none;fillColor=none;" vertex="1" parent="jBWtm6QPgeTV9L7uCzy8-21">
          <mxGeometry x="20" width="80" height="40" as="geometry" />
        </mxCell>
        <mxCell id="jBWtm6QPgeTV9L7uCzy8-3" value="Other Regions" style="points=[[0,0],[0.25,0],[0.5,0],[0.75,0],[1,0],[1,0.25],[1,0.5],[1,0.75],[1,1],[0.75,1],[0.5,1],[0.25,1],[0,1],[0,0.75],[0,0.5],[0,0.25]];outlineConnect=0;gradientColor=none;html=1;whiteSpace=wrap;fontSize=12;fontStyle=0;container=1;pointerEvents=0;collapsible=0;recursiveResize=0;shape=mxgraph.aws4.group;grIcon=mxgraph.aws4.group_region;strokeColor=#00A4A6;fillColor=none;verticalAlign=top;align=left;spacingLeft=30;fontColor=#147EBA;dashed=1;" vertex="1" parent="jBWtm6QPgeTV9L7uCzy8-5">
          <mxGeometry x="600" y="40" width="320" height="440" as="geometry" />
        </mxCell>
        <mxCell id="jBWtm6QPgeTV9L7uCzy8-24" value="" style="group" vertex="1" connectable="0" parent="jBWtm6QPgeTV9L7uCzy8-3">
          <mxGeometry x="160" y="40" width="120" height="360" as="geometry" />
        </mxCell>
        <mxCell id="jBWtm6QPgeTV9L7uCzy8-25" value="" style="rounded=0;whiteSpace=wrap;html=1;fillColor=none;strokeColor=#B266FF;dashed=1;" vertex="1" parent="jBWtm6QPgeTV9L7uCzy8-24">
          <mxGeometry width="120" height="360" as="geometry" />
        </mxCell>
        <mxCell id="jBWtm6QPgeTV9L7uCzy8-26" value="Dashboards" style="sketch=0;outlineConnect=0;fillColor=light-dark(#8c4fff, #ededed);strokeColor=light-dark(#8c4fff, #9577a3);dashed=0;verticalLabelPosition=bottom;verticalAlign=top;align=center;html=1;fontSize=12;fontStyle=0;aspect=fixed;pointerEvents=1;shape=mxgraph.aws4.metrics;strokeWidth=1;" vertex="1" parent="jBWtm6QPgeTV9L7uCzy8-24">
          <mxGeometry x="40" y="40" width="43.94" height="40" as="geometry" />
        </mxCell>
        <mxCell id="jBWtm6QPgeTV9L7uCzy8-27" value="Analyses" style="sketch=0;outlineConnect=0;fontColor=#232F3E;gradientColor=none;fillColor=#8C4FFF;strokeColor=none;dashed=0;verticalLabelPosition=bottom;verticalAlign=top;align=center;html=1;fontSize=12;fontStyle=0;aspect=fixed;pointerEvents=1;shape=mxgraph.aws4.opensearch_dashboards;" vertex="1" parent="jBWtm6QPgeTV9L7uCzy8-24">
          <mxGeometry x="35.52999999999997" y="120" width="52.88" height="40" as="geometry" />
        </mxCell>
        <mxCell id="jBWtm6QPgeTV9L7uCzy8-28" value="" style="shape=cylinder3;whiteSpace=wrap;html=1;boundedLbl=1;backgroundOutline=1;size=6.5;fillColor=none;strokeColor=light-dark(#8c4fff, #ededed);strokeWidth=3;" vertex="1" parent="jBWtm6QPgeTV9L7uCzy8-24">
          <mxGeometry x="41.97000000000003" y="200" width="40" height="40" as="geometry" />
        </mxCell>
        <mxCell id="jBWtm6QPgeTV9L7uCzy8-29" value="SPICE&lt;div&gt;Capacity&lt;/div&gt;" style="sketch=0;outlineConnect=0;fontColor=#232F3E;gradientColor=none;fillColor=light-dark(#8c4fff, #61820b);strokeColor=none;dashed=0;verticalLabelPosition=bottom;verticalAlign=top;align=center;html=1;fontSize=12;fontStyle=0;aspect=fixed;pointerEvents=1;shape=mxgraph.aws4.volume;strokeWidth=4;" vertex="1" parent="jBWtm6QPgeTV9L7uCzy8-24">
          <mxGeometry x="46.08000000000004" y="280" width="31.79" height="40" as="geometry" />
        </mxCell>
        <mxCell id="jBWtm6QPgeTV9L7uCzy8-30" value="DataSources&lt;div&gt;DataSets&lt;/div&gt;" style="text;html=1;align=center;verticalAlign=middle;resizable=0;points=[];autosize=1;strokeColor=none;fillColor=none;" vertex="1" parent="jBWtm6QPgeTV9L7uCzy8-24">
          <mxGeometry x="16.97" y="240" width="90" height="40" as="geometry" />
        </mxCell>
        <mxCell id="jBWtm6QPgeTV9L7uCzy8-31" value="QuickSight&lt;div&gt;Assets&lt;/div&gt;" style="text;html=1;align=center;verticalAlign=middle;resizable=0;points=[];autosize=1;strokeColor=none;fillColor=none;" vertex="1" parent="jBWtm6QPgeTV9L7uCzy8-24">
          <mxGeometry x="20" width="80" height="40" as="geometry" />
        </mxCell>
        <mxCell id="jBWtm6QPgeTV9L7uCzy8-36" value="" style="group" vertex="1" connectable="0" parent="jBWtm6QPgeTV9L7uCzy8-5">
          <mxGeometry x="440" y="120" width="280" height="120" as="geometry" />
        </mxCell>
        <mxCell id="jBWtm6QPgeTV9L7uCzy8-37" value="" style="rounded=0;whiteSpace=wrap;html=1;strokeColor=#B266FF;dashed=1;dashPattern=1 1;" vertex="1" parent="jBWtm6QPgeTV9L7uCzy8-36">
          <mxGeometry width="280" height="120" as="geometry" />
        </mxCell>
        <mxCell id="jBWtm6QPgeTV9L7uCzy8-38" value="QuickSight Default Namespace" style="text;html=1;align=left;verticalAlign=middle;resizable=0;points=[];autosize=1;strokeColor=none;fillColor=none;" vertex="1" parent="jBWtm6QPgeTV9L7uCzy8-36">
          <mxGeometry x="10" width="190" height="30" as="geometry" />
        </mxCell>
        <mxCell id="jBWtm6QPgeTV9L7uCzy8-46" value="User A" style="sketch=0;pointerEvents=1;shadow=0;dashed=0;html=1;strokeColor=#B266FF;fillColor=#e1d5e7;labelPosition=center;verticalLabelPosition=bottom;verticalAlign=top;outlineConnect=0;align=center;shape=mxgraph.office.users.user;" vertex="1" parent="jBWtm6QPgeTV9L7uCzy8-36">
          <mxGeometry x="40" y="40" width="40" height="40" as="geometry" />
        </mxCell>
        <mxCell id="jBWtm6QPgeTV9L7uCzy8-45" value="User Group 1" style="sketch=0;pointerEvents=1;shadow=0;dashed=0;html=1;strokeColor=#B266FF;labelPosition=center;verticalLabelPosition=bottom;verticalAlign=top;align=center;fillColor=#e1d5e7;shape=mxgraph.mscae.intune.user_group" vertex="1" parent="jBWtm6QPgeTV9L7uCzy8-36">
          <mxGeometry x="180" y="40" width="60" height="40" as="geometry" />
        </mxCell>
        <mxCell id="jBWtm6QPgeTV9L7uCzy8-52" value="" style="group" vertex="1" connectable="0" parent="1">
          <mxGeometry x="520" y="480" width="280" height="120" as="geometry" />
        </mxCell>
        <mxCell id="jBWtm6QPgeTV9L7uCzy8-53" value="" style="rounded=0;whiteSpace=wrap;html=1;strokeColor=#B266FF;dashed=1;dashPattern=1 1;" vertex="1" parent="jBWtm6QPgeTV9L7uCzy8-52">
          <mxGeometry width="280" height="120" as="geometry" />
        </mxCell>
        <mxCell id="jBWtm6QPgeTV9L7uCzy8-54" value="QuickSight Custom Namespace" style="text;html=1;align=left;verticalAlign=middle;resizable=0;points=[];autosize=1;strokeColor=none;fillColor=none;" vertex="1" parent="jBWtm6QPgeTV9L7uCzy8-52">
          <mxGeometry x="10" width="190" height="30" as="geometry" />
        </mxCell>
        <mxCell id="jBWtm6QPgeTV9L7uCzy8-55" value="User B" style="sketch=0;pointerEvents=1;shadow=0;dashed=0;html=1;strokeColor=#B266FF;fillColor=#e1d5e7;labelPosition=center;verticalLabelPosition=bottom;verticalAlign=top;outlineConnect=0;align=center;shape=mxgraph.office.users.user;" vertex="1" parent="jBWtm6QPgeTV9L7uCzy8-52">
          <mxGeometry x="40" y="40" width="40" height="40" as="geometry" />
        </mxCell>
        <mxCell id="jBWtm6QPgeTV9L7uCzy8-56" value="User Group 2" style="sketch=0;pointerEvents=1;shadow=0;dashed=0;html=1;strokeColor=#B266FF;labelPosition=center;verticalLabelPosition=bottom;verticalAlign=top;align=center;fillColor=#e1d5e7;shape=mxgraph.mscae.intune.user_group" vertex="1" parent="jBWtm6QPgeTV9L7uCzy8-52">
          <mxGeometry x="180" y="40" width="60" height="40" as="geometry" />
        </mxCell>
        <mxCell id="jBWtm6QPgeTV9L7uCzy8-84" value="AWS Cloud" style="points=[[0,0],[0.25,0],[0.5,0],[0.75,0],[1,0],[1,0.25],[1,0.5],[1,0.75],[1,1],[0.75,1],[0.5,1],[0.25,1],[0,1],[0,0.75],[0,0.5],[0,0.25]];outlineConnect=0;gradientColor=none;html=1;whiteSpace=wrap;fontSize=12;fontStyle=0;container=1;pointerEvents=0;collapsible=0;recursiveResize=0;shape=mxgraph.aws4.group;grIcon=mxgraph.aws4.group_aws_cloud;strokeColor=#232F3E;fillColor=none;verticalAlign=top;align=left;spacingLeft=30;fontColor=#232F3E;dashed=0;" vertex="1" parent="1">
          <mxGeometry x="40" y="800" width="1280" height="960" as="geometry" />
        </mxCell>
        <mxCell id="jBWtm6QPgeTV9L7uCzy8-85" value="AWS Account" style="points=[[0,0],[0.25,0],[0.5,0],[0.75,0],[1,0],[1,0.25],[1,0.5],[1,0.75],[1,1],[0.75,1],[0.5,1],[0.25,1],[0,1],[0,0.75],[0,0.5],[0,0.25]];outlineConnect=0;gradientColor=none;html=1;whiteSpace=wrap;fontSize=12;fontStyle=0;container=1;pointerEvents=0;collapsible=0;recursiveResize=0;shape=mxgraph.aws4.group;grIcon=mxgraph.aws4.group_account;strokeColor=#CD2264;fillColor=none;verticalAlign=top;align=left;spacingLeft=30;fontColor=#CD2264;dashed=0;" vertex="1" parent="jBWtm6QPgeTV9L7uCzy8-84">
          <mxGeometry x="40" y="40" width="1200" height="880" as="geometry" />
        </mxCell>
        <mxCell id="jBWtm6QPgeTV9L7uCzy8-86" value="QuickSight Management Region&lt;div&gt;(not mandatory to install here)&lt;/div&gt;" style="points=[[0,0],[0.25,0],[0.5,0],[0.75,0],[1,0],[1,0.25],[1,0.5],[1,0.75],[1,1],[0.75,1],[0.5,1],[0.25,1],[0,1],[0,0.75],[0,0.5],[0,0.25]];outlineConnect=0;gradientColor=none;html=1;whiteSpace=wrap;fontSize=12;fontStyle=0;container=1;pointerEvents=0;collapsible=0;recursiveResize=0;shape=mxgraph.aws4.group;grIcon=mxgraph.aws4.group_region;strokeColor=#00A4A6;fillColor=none;verticalAlign=top;align=left;spacingLeft=30;fontColor=#147EBA;dashed=1;" vertex="1" parent="jBWtm6QPgeTV9L7uCzy8-85">
          <mxGeometry x="40" y="40" width="800" height="800" as="geometry" />
        </mxCell>
        <mxCell id="jBWtm6QPgeTV9L7uCzy8-89" value="RLS Tool base services" style="fillColor=#f8cecc;strokeColor=#b85450;dashed=1;verticalAlign=top;fontStyle=0;whiteSpace=wrap;html=1;" vertex="1" parent="jBWtm6QPgeTV9L7uCzy8-86">
          <mxGeometry x="40" y="80" width="520" height="680" as="geometry" />
        </mxCell>
        <mxCell id="jBWtm6QPgeTV9L7uCzy8-87" value="AWS Amplify" style="sketch=0;points=[[0,0,0],[0.25,0,0],[0.5,0,0],[0.75,0,0],[1,0,0],[0,1,0],[0.25,1,0],[0.5,1,0],[0.75,1,0],[1,1,0],[0,0.25,0],[0,0.5,0],[0,0.75,0],[1,0.25,0],[1,0.5,0],[1,0.75,0]];outlineConnect=0;fontColor=#232F3E;fillColor=#DD344C;strokeColor=#ffffff;dashed=0;verticalLabelPosition=bottom;verticalAlign=top;align=center;html=1;fontSize=12;fontStyle=0;aspect=fixed;shape=mxgraph.aws4.resourceIcon;resIcon=mxgraph.aws4.amplify;" vertex="1" parent="jBWtm6QPgeTV9L7uCzy8-86">
          <mxGeometry x="280" y="120" width="40" height="40" as="geometry" />
        </mxCell>
        <mxCell id="jBWtm6QPgeTV9L7uCzy8-108" value="" style="group" vertex="1" connectable="0" parent="jBWtm6QPgeTV9L7uCzy8-86">
          <mxGeometry x="150" y="200" width="300" height="190" as="geometry" />
        </mxCell>
        <mxCell id="jBWtm6QPgeTV9L7uCzy8-102" value="Data Models - DynamoDB tables" style="fillColor=light-dark(#FAE9FE,#1A1A1A);strokeColor=#666666;dashed=0;verticalAlign=top;fontStyle=0;fontColor=#333333;whiteSpace=wrap;html=1;" vertex="1" parent="jBWtm6QPgeTV9L7uCzy8-108">
          <mxGeometry width="300" height="190" as="geometry" />
        </mxCell>
        <mxCell id="jBWtm6QPgeTV9L7uCzy8-103" value="AccountDetails" style="sketch=0;points=[[0,0,0],[0.25,0,0],[0.5,0,0],[0.75,0,0],[1,0,0],[0,1,0],[0.25,1,0],[0.5,1,0],[0.75,1,0],[1,1,0],[0,0.25,0],[0,0.5,0],[0,0.75,0],[1,0.25,0],[1,0.5,0],[1,0.75,0]];outlineConnect=0;fontColor=#232F3E;fillColor=#C925D1;strokeColor=#ffffff;dashed=0;verticalLabelPosition=bottom;verticalAlign=top;align=center;html=1;fontSize=12;fontStyle=0;aspect=fixed;shape=mxgraph.aws4.resourceIcon;resIcon=mxgraph.aws4.dynamodb;" vertex="1" parent="jBWtm6QPgeTV9L7uCzy8-108">
          <mxGeometry x="30" y="35" width="40" height="40" as="geometry" />
        </mxCell>
        <mxCell id="jBWtm6QPgeTV9L7uCzy8-104" value="ManagedRegion" style="sketch=0;points=[[0,0,0],[0.25,0,0],[0.5,0,0],[0.75,0,0],[1,0,0],[0,1,0],[0.25,1,0],[0.5,1,0],[0.75,1,0],[1,1,0],[0,0.25,0],[0,0.5,0],[0,0.75,0],[1,0.25,0],[1,0.5,0],[1,0.75,0]];outlineConnect=0;fontColor=#232F3E;fillColor=#C925D1;strokeColor=#ffffff;dashed=0;verticalLabelPosition=bottom;verticalAlign=top;align=center;html=1;fontSize=12;fontStyle=0;aspect=fixed;shape=mxgraph.aws4.resourceIcon;resIcon=mxgraph.aws4.dynamodb;" vertex="1" parent="jBWtm6QPgeTV9L7uCzy8-108">
          <mxGeometry x="130" y="35" width="40" height="40" as="geometry" />
        </mxCell>
        <mxCell id="jBWtm6QPgeTV9L7uCzy8-105" value="Namespaces" style="sketch=0;points=[[0,0,0],[0.25,0,0],[0.5,0,0],[0.75,0,0],[1,0,0],[0,1,0],[0.25,1,0],[0.5,1,0],[0.75,1,0],[1,1,0],[0,0.25,0],[0,0.5,0],[0,0.75,0],[1,0.25,0],[1,0.5,0],[1,0.75,0]];outlineConnect=0;fontColor=#232F3E;fillColor=#C925D1;strokeColor=#ffffff;dashed=0;verticalLabelPosition=bottom;verticalAlign=top;align=center;html=1;fontSize=12;fontStyle=0;aspect=fixed;shape=mxgraph.aws4.resourceIcon;resIcon=mxgraph.aws4.dynamodb;" vertex="1" parent="jBWtm6QPgeTV9L7uCzy8-108">
          <mxGeometry x="230" y="35" width="40" height="40" as="geometry" />
        </mxCell>
        <mxCell id="jBWtm6QPgeTV9L7uCzy8-106" value="UserGroup" style="sketch=0;points=[[0,0,0],[0.25,0,0],[0.5,0,0],[0.75,0,0],[1,0,0],[0,1,0],[0.25,1,0],[0.5,1,0],[0.75,1,0],[1,1,0],[0,0.25,0],[0,0.5,0],[0,0.75,0],[1,0.25,0],[1,0.5,0],[1,0.75,0]];outlineConnect=0;fontColor=#232F3E;fillColor=#C925D1;strokeColor=#ffffff;dashed=0;verticalLabelPosition=bottom;verticalAlign=top;align=center;html=1;fontSize=12;fontStyle=0;aspect=fixed;shape=mxgraph.aws4.resourceIcon;resIcon=mxgraph.aws4.dynamodb;" vertex="1" parent="jBWtm6QPgeTV9L7uCzy8-108">
          <mxGeometry x="80" y="115" width="40" height="40" as="geometry" />
        </mxCell>
        <mxCell id="jBWtm6QPgeTV9L7uCzy8-107" value="DataSet" style="sketch=0;points=[[0,0,0],[0.25,0,0],[0.5,0,0],[0.75,0,0],[1,0,0],[0,1,0],[0.25,1,0],[0.5,1,0],[0.75,1,0],[1,1,0],[0,0.25,0],[0,0.5,0],[0,0.75,0],[1,0.25,0],[1,0.5,0],[1,0.75,0]];outlineConnect=0;fontColor=#232F3E;fillColor=#C925D1;strokeColor=#ffffff;dashed=0;verticalLabelPosition=bottom;verticalAlign=top;align=center;html=1;fontSize=12;fontStyle=0;aspect=fixed;shape=mxgraph.aws4.resourceIcon;resIcon=mxgraph.aws4.dynamodb;" vertex="1" parent="jBWtm6QPgeTV9L7uCzy8-108">
          <mxGeometry x="180" y="115" width="40" height="40" as="geometry" />
        </mxCell>
        <mxCell id="jBWtm6QPgeTV9L7uCzy8-110" value="Lambda Functions" style="fillColor=none;strokeColor=#5A6C86;dashed=1;verticalAlign=top;fontStyle=0;fontColor=#5A6C86;whiteSpace=wrap;html=1;" vertex="1" parent="jBWtm6QPgeTV9L7uCzy8-86">
          <mxGeometry x="70" y="440" width="460" height="280" as="geometry" />
        </mxCell>
        <mxCell id="jBWtm6QPgeTV9L7uCzy8-111" value="setAccount" style="sketch=0;points=[[0,0,0],[0.25,0,0],[0.5,0,0],[0.75,0,0],[1,0,0],[0,1,0],[0.25,1,0],[0.5,1,0],[0.75,1,0],[1,1,0],[0,0.25,0],[0,0.5,0],[0,0.75,0],[1,0.25,0],[1,0.5,0],[1,0.75,0]];outlineConnect=0;fontColor=#232F3E;fillColor=#ED7100;strokeColor=#ffffff;dashed=0;verticalLabelPosition=bottom;verticalAlign=top;align=center;html=1;fontSize=12;fontStyle=0;aspect=fixed;shape=mxgraph.aws4.resourceIcon;resIcon=mxgraph.aws4.lambda;" vertex="1" parent="jBWtm6QPgeTV9L7uCzy8-86">
          <mxGeometry x="130" y="480" width="40" height="40" as="geometry" />
        </mxCell>
        <mxCell id="jBWtm6QPgeTV9L7uCzy8-112" value="fetchNamespaces&lt;div&gt;FromQS&lt;/div&gt;" style="sketch=0;points=[[0,0,0],[0.25,0,0],[0.5,0,0],[0.75,0,0],[1,0,0],[0,1,0],[0.25,1,0],[0.5,1,0],[0.75,1,0],[1,1,0],[0,0.25,0],[0,0.5,0],[0,0.75,0],[1,0.25,0],[1,0.5,0],[1,0.75,0]];outlineConnect=0;fontColor=#232F3E;fillColor=#ED7100;strokeColor=#ffffff;dashed=0;verticalLabelPosition=bottom;verticalAlign=top;align=center;html=1;fontSize=12;fontStyle=0;aspect=fixed;shape=mxgraph.aws4.resourceIcon;resIcon=mxgraph.aws4.lambda;" vertex="1" parent="jBWtm6QPgeTV9L7uCzy8-86">
          <mxGeometry x="230" y="480" width="40" height="40" as="geometry" />
        </mxCell>
        <mxCell id="jBWtm6QPgeTV9L7uCzy8-113" value="fetchGroups&lt;div&gt;FromQS&lt;/div&gt;" style="sketch=0;points=[[0,0,0],[0.25,0,0],[0.5,0,0],[0.75,0,0],[1,0,0],[0,1,0],[0.25,1,0],[0.5,1,0],[0.75,1,0],[1,1,0],[0,0.25,0],[0,0.5,0],[0,0.75,0],[1,0.25,0],[1,0.5,0],[1,0.75,0]];outlineConnect=0;fontColor=#232F3E;fillColor=#ED7100;strokeColor=#ffffff;dashed=0;verticalLabelPosition=bottom;verticalAlign=top;align=center;html=1;fontSize=12;fontStyle=0;aspect=fixed;shape=mxgraph.aws4.resourceIcon;resIcon=mxgraph.aws4.lambda;" vertex="1" parent="jBWtm6QPgeTV9L7uCzy8-86">
          <mxGeometry x="330" y="480" width="40" height="40" as="geometry" />
        </mxCell>
        <mxCell id="jBWtm6QPgeTV9L7uCzy8-114" value="fetchUsers&lt;div&gt;FromQS&lt;/div&gt;" style="sketch=0;points=[[0,0,0],[0.25,0,0],[0.5,0,0],[0.75,0,0],[1,0,0],[0,1,0],[0.25,1,0],[0.5,1,0],[0.75,1,0],[1,1,0],[0,0.25,0],[0,0.5,0],[0,0.75,0],[1,0.25,0],[1,0.5,0],[1,0.75,0]];outlineConnect=0;fontColor=#232F3E;fillColor=#ED7100;strokeColor=#ffffff;dashed=0;verticalLabelPosition=bottom;verticalAlign=top;align=center;html=1;fontSize=12;fontStyle=0;aspect=fixed;shape=mxgraph.aws4.resourceIcon;resIcon=mxgraph.aws4.lambda;" vertex="1" parent="jBWtm6QPgeTV9L7uCzy8-86">
          <mxGeometry x="430" y="480" width="40" height="40" as="geometry" />
        </mxCell>
        <mxCell id="jBWtm6QPgeTV9L7uCzy8-120" value="fetchDataSets&lt;div&gt;FromQS&lt;/div&gt;" style="sketch=0;points=[[0,0,0],[0.25,0,0],[0.5,0,0],[0.75,0,0],[1,0,0],[0,1,0],[0.25,1,0],[0.5,1,0],[0.75,1,0],[1,1,0],[0,0.25,0],[0,0.5,0],[0,0.75,0],[1,0.25,0],[1,0.5,0],[1,0.75,0]];outlineConnect=0;fontColor=#232F3E;fillColor=#ED7100;strokeColor=#ffffff;dashed=0;verticalLabelPosition=bottom;verticalAlign=top;align=center;html=1;fontSize=12;fontStyle=0;aspect=fixed;shape=mxgraph.aws4.resourceIcon;resIcon=mxgraph.aws4.lambda;" vertex="1" parent="jBWtm6QPgeTV9L7uCzy8-86">
          <mxGeometry x="130" y="560" width="40" height="40" as="geometry" />
        </mxCell>
        <mxCell id="jBWtm6QPgeTV9L7uCzy8-121" value="fetchDataSetFields&lt;div&gt;FromQS&lt;/div&gt;" style="sketch=0;points=[[0,0,0],[0.25,0,0],[0.5,0,0],[0.75,0,0],[1,0,0],[0,1,0],[0.25,1,0],[0.5,1,0],[0.75,1,0],[1,1,0],[0,0.25,0],[0,0.5,0],[0,0.75,0],[1,0.25,0],[1,0.5,0],[1,0.75,0]];outlineConnect=0;fontColor=#232F3E;fillColor=#ED7100;strokeColor=#ffffff;dashed=0;verticalLabelPosition=bottom;verticalAlign=top;align=center;html=1;fontSize=12;fontStyle=0;aspect=fixed;shape=mxgraph.aws4.resourceIcon;resIcon=mxgraph.aws4.lambda;" vertex="1" parent="jBWtm6QPgeTV9L7uCzy8-86">
          <mxGeometry x="230" y="560" width="40" height="40" as="geometry" />
        </mxCell>
        <mxCell id="jBWtm6QPgeTV9L7uCzy8-122" value="getQSSpice&lt;div&gt;Capacity&lt;/div&gt;" style="sketch=0;points=[[0,0,0],[0.25,0,0],[0.5,0,0],[0.75,0,0],[1,0,0],[0,1,0],[0.25,1,0],[0.5,1,0],[0.75,1,0],[1,1,0],[0,0.25,0],[0,0.5,0],[0,0.75,0],[1,0.25,0],[1,0.5,0],[1,0.75,0]];outlineConnect=0;fontColor=#232F3E;fillColor=#ED7100;strokeColor=#ffffff;dashed=0;verticalLabelPosition=bottom;verticalAlign=top;align=center;html=1;fontSize=12;fontStyle=0;aspect=fixed;shape=mxgraph.aws4.resourceIcon;resIcon=mxgraph.aws4.lambda;" vertex="1" parent="jBWtm6QPgeTV9L7uCzy8-86">
          <mxGeometry x="330" y="560" width="40" height="40" as="geometry" />
        </mxCell>
        <mxCell id="jBWtm6QPgeTV9L7uCzy8-123" value="publishRLS&lt;div&gt;toQuickSight&lt;/div&gt;" style="sketch=0;points=[[0,0,0],[0.25,0,0],[0.5,0,0],[0.75,0,0],[1,0,0],[0,1,0],[0.25,1,0],[0.5,1,0],[0.75,1,0],[1,1,0],[0,0.25,0],[0,0.5,0],[0,0.75,0],[1,0.25,0],[1,0.5,0],[1,0.75,0]];outlineConnect=0;fontColor=#232F3E;fillColor=#ED7100;strokeColor=#ffffff;dashed=0;verticalLabelPosition=bottom;verticalAlign=top;align=center;html=1;fontSize=12;fontStyle=0;aspect=fixed;shape=mxgraph.aws4.resourceIcon;resIcon=mxgraph.aws4.lambda;" vertex="1" parent="jBWtm6QPgeTV9L7uCzy8-86">
          <mxGeometry x="430" y="560" width="40" height="40" as="geometry" />
        </mxCell>
        <mxCell id="jBWtm6QPgeTV9L7uCzy8-124" value="checkQSManagement&lt;div&gt;RegionAccess&lt;/div&gt;" style="sketch=0;points=[[0,0,0],[0.25,0,0],[0.5,0,0],[0.75,0,0],[1,0,0],[0,1,0],[0.25,1,0],[0.5,1,0],[0.75,1,0],[1,1,0],[0,0.25,0],[0,0.5,0],[0,0.75,0],[1,0.25,0],[1,0.5,0],[1,0.75,0]];outlineConnect=0;fontColor=#232F3E;fillColor=#ED7100;strokeColor=#ffffff;dashed=0;verticalLabelPosition=bottom;verticalAlign=top;align=center;html=1;fontSize=12;fontStyle=0;aspect=fixed;shape=mxgraph.aws4.resourceIcon;resIcon=mxgraph.aws4.lambda;" vertex="1" parent="jBWtm6QPgeTV9L7uCzy8-86">
          <mxGeometry x="130" y="640" width="40" height="40" as="geometry" />
        </mxCell>
        <mxCell id="jBWtm6QPgeTV9L7uCzy8-125" value="create&lt;div&gt;S3Bucket&lt;/div&gt;" style="sketch=0;points=[[0,0,0],[0.25,0,0],[0.5,0,0],[0.75,0,0],[1,0,0],[0,1,0],[0.25,1,0],[0.5,1,0],[0.75,1,0],[1,1,0],[0,0.25,0],[0,0.5,0],[0,0.75,0],[1,0.25,0],[1,0.5,0],[1,0.75,0]];outlineConnect=0;fontColor=#232F3E;fillColor=#ED7100;strokeColor=#ffffff;dashed=0;verticalLabelPosition=bottom;verticalAlign=top;align=center;html=1;fontSize=12;fontStyle=0;aspect=fixed;shape=mxgraph.aws4.resourceIcon;resIcon=mxgraph.aws4.lambda;" vertex="1" parent="jBWtm6QPgeTV9L7uCzy8-86">
          <mxGeometry x="230" y="640" width="40" height="40" as="geometry" />
        </mxCell>
        <mxCell id="jBWtm6QPgeTV9L7uCzy8-126" value="" style="sketch=0;points=[[0,0,0],[0.25,0,0],[0.5,0,0],[0.75,0,0],[1,0,0],[0,1,0],[0.25,1,0],[0.5,1,0],[0.75,1,0],[1,1,0],[0,0.25,0],[0,0.5,0],[0,0.75,0],[1,0.25,0],[1,0.5,0],[1,0.75,0]];outlineConnect=0;fontColor=#232F3E;fillColor=#ED7100;strokeColor=#ffffff;dashed=0;verticalLabelPosition=bottom;verticalAlign=top;align=center;html=1;fontSize=12;fontStyle=0;aspect=fixed;shape=mxgraph.aws4.resourceIcon;resIcon=mxgraph.aws4.lambda;" vertex="1" parent="jBWtm6QPgeTV9L7uCzy8-86">
          <mxGeometry x="330" y="640" width="40" height="40" as="geometry" />
        </mxCell>
        <mxCell id="jBWtm6QPgeTV9L7uCzy8-127" value="" style="sketch=0;points=[[0,0,0],[0.25,0,0],[0.5,0,0],[0.75,0,0],[1,0,0],[0,1,0],[0.25,1,0],[0.5,1,0],[0.75,1,0],[1,1,0],[0,0.25,0],[0,0.5,0],[0,0.75,0],[1,0.25,0],[1,0.5,0],[1,0.75,0]];outlineConnect=0;fontColor=#232F3E;fillColor=#ED7100;strokeColor=#ffffff;dashed=0;verticalLabelPosition=bottom;verticalAlign=top;align=center;html=1;fontSize=12;fontStyle=0;aspect=fixed;shape=mxgraph.aws4.resourceIcon;resIcon=mxgraph.aws4.lambda;" vertex="1" parent="jBWtm6QPgeTV9L7uCzy8-86">
          <mxGeometry x="430" y="640" width="40" height="40" as="geometry" />
        </mxCell>
        <mxCell id="jBWtm6QPgeTV9L7uCzy8-136" value="Note: QS-dataSet-ID is the ID&lt;div&gt;of the DataSet to be secured&lt;/div&gt;" style="text;html=1;align=center;verticalAlign=middle;resizable=0;points=[];autosize=1;strokeColor=none;fillColor=none;fontSize=10;" vertex="1" parent="jBWtm6QPgeTV9L7uCzy8-86">
          <mxGeometry x="599.23" y="720" width="160" height="40" as="geometry" />
        </mxCell>
        <mxCell id="jBWtm6QPgeTV9L7uCzy8-174" value="" style="group" vertex="1" connectable="0" parent="jBWtm6QPgeTV9L7uCzy8-86">
          <mxGeometry x="600" y="160" width="160" height="560" as="geometry" />
        </mxCell>
        <mxCell id="jBWtm6QPgeTV9L7uCzy8-128" value="qs-managed-rls-[UUID]" style="sketch=0;outlineConnect=0;fontColor=#232F3E;gradientColor=none;fillColor=#7AA116;strokeColor=none;dashed=0;verticalLabelPosition=bottom;verticalAlign=top;align=center;html=1;fontSize=12;fontStyle=0;aspect=fixed;pointerEvents=1;shape=mxgraph.aws4.bucket;" vertex="1" parent="jBWtm6QPgeTV9L7uCzy8-174">
          <mxGeometry x="60.76999999999998" width="38.46" height="40" as="geometry" />
        </mxCell>
        <mxCell id="jBWtm6QPgeTV9L7uCzy8-129" value="qs-managed-rls-db-[UUID]" style="sketch=0;points=[[0,0,0],[0.25,0,0],[0.5,0,0],[0.75,0,0],[1,0,0],[0,1,0],[0.25,1,0],[0.5,1,0],[0.75,1,0],[1,1,0],[0,0.25,0],[0,0.5,0],[0,0.75,0],[1,0.25,0],[1,0.5,0],[1,0.75,0]];outlineConnect=0;fontColor=#232F3E;fillColor=#8C4FFF;strokeColor=#ffffff;dashed=0;verticalLabelPosition=bottom;verticalAlign=top;align=center;html=1;fontSize=12;fontStyle=0;aspect=fixed;shape=mxgraph.aws4.resourceIcon;resIcon=mxgraph.aws4.glue;" vertex="1" parent="jBWtm6QPgeTV9L7uCzy8-174">
          <mxGeometry x="60.76999999999998" y="120" width="40" height="40" as="geometry" />
        </mxCell>
        <mxCell id="jBWtm6QPgeTV9L7uCzy8-130" value="" style="shape=cylinder3;whiteSpace=wrap;html=1;boundedLbl=1;backgroundOutline=1;size=6.5;fillColor=none;strokeColor=light-dark(#8c4fff, #ededed);strokeWidth=3;" vertex="1" parent="jBWtm6QPgeTV9L7uCzy8-174">
          <mxGeometry x="60" y="240" width="40" height="40" as="geometry" />
        </mxCell>
        <mxCell id="jBWtm6QPgeTV9L7uCzy8-131" value="qs-managed-rls-&lt;div&gt;data-source-[UUID]&lt;/div&gt;" style="text;html=1;align=center;verticalAlign=middle;resizable=0;points=[];autosize=1;strokeColor=none;fillColor=none;" vertex="1" parent="jBWtm6QPgeTV9L7uCzy8-174">
          <mxGeometry x="15" y="280" width="130" height="40" as="geometry" />
        </mxCell>
        <mxCell id="jBWtm6QPgeTV9L7uCzy8-133" value="RLS Group (one x RLS created)" style="fillColor=none;strokeColor=#5A6C86;dashed=1;verticalAlign=top;fontStyle=0;fontColor=#5A6C86;whiteSpace=wrap;html=1;" vertex="1" parent="jBWtm6QPgeTV9L7uCzy8-174">
          <mxGeometry y="360" width="160" height="200" as="geometry" />
        </mxCell>
        <mxCell id="jBWtm6QPgeTV9L7uCzy8-132" value="" style="shape=cylinder3;whiteSpace=wrap;html=1;boundedLbl=1;backgroundOutline=1;size=6.5;fillColor=none;strokeColor=light-dark(#8c4fff, #ededed);strokeWidth=3;" vertex="1" parent="jBWtm6QPgeTV9L7uCzy8-174">
          <mxGeometry x="60.76999999999998" y="480" width="40" height="40" as="geometry" />
        </mxCell>
        <mxCell id="jBWtm6QPgeTV9L7uCzy8-134" value="qs-rls-[QS-dataSet-ID]" style="sketch=0;points=[[0,0,0],[0.25,0,0],[0.5,0,0],[0.75,0,0],[1,0,0],[0,1,0],[0.25,1,0],[0.5,1,0],[0.75,1,0],[1,1,0],[0,0.25,0],[0,0.5,0],[0,0.75,0],[1,0.25,0],[1,0.5,0],[1,0.75,0]];outlineConnect=0;fontColor=#232F3E;fillColor=#8C4FFF;strokeColor=#ffffff;dashed=0;verticalLabelPosition=bottom;verticalAlign=top;align=center;html=1;fontSize=12;fontStyle=0;aspect=fixed;shape=mxgraph.aws4.resourceIcon;resIcon=mxgraph.aws4.glue;" vertex="1" parent="jBWtm6QPgeTV9L7uCzy8-174">
          <mxGeometry x="59.23000000000002" y="400" width="40" height="40" as="geometry" />
        </mxCell>
        <mxCell id="jBWtm6QPgeTV9L7uCzy8-135" value="RLS-[QS-dataSet-ID]" style="text;html=1;align=center;verticalAlign=middle;resizable=0;points=[];autosize=1;strokeColor=none;fillColor=none;" vertex="1" parent="jBWtm6QPgeTV9L7uCzy8-174">
          <mxGeometry x="10.769999999999982" y="520" width="140" height="30" as="geometry" />
        </mxCell>
        <mxCell id="jBWtm6QPgeTV9L7uCzy8-137" value="Other QS Region" style="points=[[0,0],[0.25,0],[0.5,0],[0.75,0],[1,0],[1,0.25],[1,0.5],[1,0.75],[1,1],[0.75,1],[0.5,1],[0.25,1],[0,1],[0,0.75],[0,0.5],[0,0.25]];outlineConnect=0;gradientColor=none;html=1;whiteSpace=wrap;fontSize=12;fontStyle=0;container=1;pointerEvents=0;collapsible=0;recursiveResize=0;shape=mxgraph.aws4.group;grIcon=mxgraph.aws4.group_region;strokeColor=#00A4A6;fillColor=none;verticalAlign=top;align=left;spacingLeft=30;fontColor=#147EBA;dashed=1;" vertex="1" parent="jBWtm6QPgeTV9L7uCzy8-85">
          <mxGeometry x="920" y="40" width="240" height="800" as="geometry" />
        </mxCell>
        <mxCell id="jBWtm6QPgeTV9L7uCzy8-184" value="" style="group" vertex="1" connectable="0" parent="jBWtm6QPgeTV9L7uCzy8-137">
          <mxGeometry x="40" y="160" width="160" height="560" as="geometry" />
        </mxCell>
        <mxCell id="jBWtm6QPgeTV9L7uCzy8-185" value="qs-managed-rls-[UUID]" style="sketch=0;outlineConnect=0;fontColor=#232F3E;gradientColor=none;fillColor=#7AA116;strokeColor=none;dashed=0;verticalLabelPosition=bottom;verticalAlign=top;align=center;html=1;fontSize=12;fontStyle=0;aspect=fixed;pointerEvents=1;shape=mxgraph.aws4.bucket;" vertex="1" parent="jBWtm6QPgeTV9L7uCzy8-184">
          <mxGeometry x="60.76999999999998" width="38.46" height="40" as="geometry" />
        </mxCell>
        <mxCell id="jBWtm6QPgeTV9L7uCzy8-186" value="qs-managed-rls-db-[UUID]" style="sketch=0;points=[[0,0,0],[0.25,0,0],[0.5,0,0],[0.75,0,0],[1,0,0],[0,1,0],[0.25,1,0],[0.5,1,0],[0.75,1,0],[1,1,0],[0,0.25,0],[0,0.5,0],[0,0.75,0],[1,0.25,0],[1,0.5,0],[1,0.75,0]];outlineConnect=0;fontColor=#232F3E;fillColor=#8C4FFF;strokeColor=#ffffff;dashed=0;verticalLabelPosition=bottom;verticalAlign=top;align=center;html=1;fontSize=12;fontStyle=0;aspect=fixed;shape=mxgraph.aws4.resourceIcon;resIcon=mxgraph.aws4.glue;" vertex="1" parent="jBWtm6QPgeTV9L7uCzy8-184">
          <mxGeometry x="60.76999999999998" y="120" width="40" height="40" as="geometry" />
        </mxCell>
        <mxCell id="jBWtm6QPgeTV9L7uCzy8-187" value="" style="shape=cylinder3;whiteSpace=wrap;html=1;boundedLbl=1;backgroundOutline=1;size=6.5;fillColor=none;strokeColor=light-dark(#8c4fff, #ededed);strokeWidth=3;" vertex="1" parent="jBWtm6QPgeTV9L7uCzy8-184">
          <mxGeometry x="60" y="240" width="40" height="40" as="geometry" />
        </mxCell>
        <mxCell id="jBWtm6QPgeTV9L7uCzy8-188" value="qs-managed-rls-&lt;div&gt;data-source-[UUID]&lt;/div&gt;" style="text;html=1;align=center;verticalAlign=middle;resizable=0;points=[];autosize=1;strokeColor=none;fillColor=none;" vertex="1" parent="jBWtm6QPgeTV9L7uCzy8-184">
          <mxGeometry x="15" y="280" width="130" height="40" as="geometry" />
        </mxCell>
        <mxCell id="jBWtm6QPgeTV9L7uCzy8-189" value="RLS Group (one x RLS created)" style="fillColor=none;strokeColor=#5A6C86;dashed=1;verticalAlign=top;fontStyle=0;fontColor=#5A6C86;whiteSpace=wrap;html=1;" vertex="1" parent="jBWtm6QPgeTV9L7uCzy8-184">
          <mxGeometry y="360" width="160" height="200" as="geometry" />
        </mxCell>
        <mxCell id="jBWtm6QPgeTV9L7uCzy8-190" value="" style="shape=cylinder3;whiteSpace=wrap;html=1;boundedLbl=1;backgroundOutline=1;size=6.5;fillColor=none;strokeColor=light-dark(#8c4fff, #ededed);strokeWidth=3;" vertex="1" parent="jBWtm6QPgeTV9L7uCzy8-184">
          <mxGeometry x="60.76999999999998" y="480" width="40" height="40" as="geometry" />
        </mxCell>
        <mxCell id="jBWtm6QPgeTV9L7uCzy8-191" value="qs-rls-[QS-dataSet-ID]" style="sketch=0;points=[[0,0,0],[0.25,0,0],[0.5,0,0],[0.75,0,0],[1,0,0],[0,1,0],[0.25,1,0],[0.5,1,0],[0.75,1,0],[1,1,0],[0,0.25,0],[0,0.5,0],[0,0.75,0],[1,0.25,0],[1,0.5,0],[1,0.75,0]];outlineConnect=0;fontColor=#232F3E;fillColor=#8C4FFF;strokeColor=#ffffff;dashed=0;verticalLabelPosition=bottom;verticalAlign=top;align=center;html=1;fontSize=12;fontStyle=0;aspect=fixed;shape=mxgraph.aws4.resourceIcon;resIcon=mxgraph.aws4.glue;" vertex="1" parent="jBWtm6QPgeTV9L7uCzy8-184">
          <mxGeometry x="59.23000000000002" y="400" width="40" height="40" as="geometry" />
        </mxCell>
        <mxCell id="jBWtm6QPgeTV9L7uCzy8-192" value="RLS-[QS-dataSet-ID]" style="text;html=1;align=center;verticalAlign=middle;resizable=0;points=[];autosize=1;strokeColor=none;fillColor=none;" vertex="1" parent="jBWtm6QPgeTV9L7uCzy8-184">
          <mxGeometry x="10.769999999999982" y="520" width="140" height="30" as="geometry" />
        </mxCell>
      </root>
    </mxGraphModel>
  </diagram>
  <diagram name="Manage Permission" id="RlcLJiCMGtlLj-6wM9a0">
    <mxGraphModel dx="954" dy="1699" grid="1" gridSize="10" guides="1" tooltips="1" connect="1" arrows="1" fold="1" page="1" pageScale="1" pageWidth="827" pageHeight="1169" math="0" shadow="0">
      <root>
        <mxCell id="0" />
        <mxCell id="1" parent="0" />
        <mxCell id="4LsymIjCZTTFca7TZVZm-1" value="START" style="strokeWidth=2;html=1;shape=mxgraph.flowchart.start_2;whiteSpace=wrap;fillColor=#dae8fc;strokeColor=#6c8ebf;" parent="1" vertex="1">
          <mxGeometry x="80" y="-160" width="40" height="40" as="geometry" />
        </mxCell>
        <mxCell id="4LsymIjCZTTFca7TZVZm-62" style="edgeStyle=orthogonalEdgeStyle;rounded=0;orthogonalLoop=1;jettySize=auto;html=1;" parent="1" source="4LsymIjCZTTFca7TZVZm-2" target="4LsymIjCZTTFca7TZVZm-60" edge="1">
          <mxGeometry relative="1" as="geometry" />
        </mxCell>
        <mxCell id="4LsymIjCZTTFca7TZVZm-2" value="Select&amp;nbsp;&lt;div&gt;Region&lt;/div&gt;" style="shape=parallelogram;perimeter=parallelogramPerimeter;whiteSpace=wrap;html=1;fixedSize=1;" parent="1" vertex="1">
          <mxGeometry x="40" y="80" width="120" height="40" as="geometry" />
        </mxCell>
        <mxCell id="4LsymIjCZTTFca7TZVZm-111" style="edgeStyle=orthogonalEdgeStyle;rounded=0;orthogonalLoop=1;jettySize=auto;html=1;" parent="1" source="4LsymIjCZTTFca7TZVZm-3" target="4LsymIjCZTTFca7TZVZm-110" edge="1">
          <mxGeometry relative="1" as="geometry" />
        </mxCell>
        <mxCell id="4LsymIjCZTTFca7TZVZm-3" value="fetchPermissions / fill permissionTable" style="rounded=1;whiteSpace=wrap;html=1;" parent="1" vertex="1">
          <mxGeometry x="40" y="400" width="120" height="40" as="geometry" />
        </mxCell>
        <mxCell id="4LsymIjCZTTFca7TZVZm-4" value="" style="endArrow=classic;html=1;rounded=0;exitX=0.5;exitY=1;exitDx=0;exitDy=0;exitPerimeter=0;entryX=0.5;entryY=0;entryDx=0;entryDy=0;" parent="1" source="4LsymIjCZTTFca7TZVZm-1" target="4LsymIjCZTTFca7TZVZm-79" edge="1">
          <mxGeometry width="50" height="50" relative="1" as="geometry">
            <mxPoint x="-260" y="210" as="sourcePoint" />
            <mxPoint x="-210" y="160" as="targetPoint" />
          </mxGeometry>
        </mxCell>
        <mxCell id="4LsymIjCZTTFca7TZVZm-175" style="edgeStyle=orthogonalEdgeStyle;rounded=0;orthogonalLoop=1;jettySize=auto;html=1;" parent="1" source="4LsymIjCZTTFca7TZVZm-8" target="4LsymIjCZTTFca7TZVZm-173" edge="1">
          <mxGeometry relative="1" as="geometry" />
        </mxCell>
        <mxCell id="4LsymIjCZTTFca7TZVZm-8" value="Add New&lt;div&gt;Permission&lt;/div&gt;" style="shape=parallelogram;perimeter=parallelogramPerimeter;whiteSpace=wrap;html=1;fixedSize=1;fillColor=#e1d5e7;strokeColor=#9673a6;" parent="1" vertex="1">
          <mxGeometry x="400" y="-40" width="120" height="40" as="geometry" />
        </mxCell>
        <mxCell id="4LsymIjCZTTFca7TZVZm-19" style="edgeStyle=orthogonalEdgeStyle;rounded=0;orthogonalLoop=1;jettySize=auto;html=1;entryX=0;entryY=0.5;entryDx=0;entryDy=0;" parent="1" source="4LsymIjCZTTFca7TZVZm-10" target="4LsymIjCZTTFca7TZVZm-20" edge="1">
          <mxGeometry relative="1" as="geometry">
            <mxPoint x="520" y="220" as="targetPoint" />
          </mxGeometry>
        </mxCell>
        <mxCell id="4LsymIjCZTTFca7TZVZm-10" value="InLine RLS&lt;div&gt;Value Edit&lt;/div&gt;" style="shape=parallelogram;perimeter=parallelogramPerimeter;whiteSpace=wrap;html=1;fixedSize=1;fillColor=#e1d5e7;strokeColor=#9673a6;" parent="1" vertex="1">
          <mxGeometry x="400" y="200" width="120" height="40" as="geometry" />
        </mxCell>
        <mxCell id="4LsymIjCZTTFca7TZVZm-47" style="edgeStyle=orthogonalEdgeStyle;rounded=0;orthogonalLoop=1;jettySize=auto;html=1;" parent="1" source="4LsymIjCZTTFca7TZVZm-11" target="4LsymIjCZTTFca7TZVZm-46" edge="1">
          <mxGeometry relative="1" as="geometry" />
        </mxCell>
        <mxCell id="4LsymIjCZTTFca7TZVZm-11" value="Delete&lt;div&gt;Permission&lt;/div&gt;" style="shape=parallelogram;perimeter=parallelogramPerimeter;whiteSpace=wrap;html=1;fixedSize=1;fillColor=#e1d5e7;strokeColor=#9673a6;" parent="1" vertex="1">
          <mxGeometry x="400" y="440" width="120" height="40" as="geometry" />
        </mxCell>
        <mxCell id="4LsymIjCZTTFca7TZVZm-64" style="edgeStyle=orthogonalEdgeStyle;rounded=0;orthogonalLoop=1;jettySize=auto;html=1;" parent="1" source="4LsymIjCZTTFca7TZVZm-12" target="4LsymIjCZTTFca7TZVZm-63" edge="1">
          <mxGeometry relative="1" as="geometry" />
        </mxCell>
        <mxCell id="4LsymIjCZTTFca7TZVZm-12" value="Generate CSV" style="shape=parallelogram;perimeter=parallelogramPerimeter;whiteSpace=wrap;html=1;fixedSize=1;fillColor=#fff2cc;strokeColor=#d6b656;" parent="1" vertex="1">
          <mxGeometry x="400" y="680" width="120" height="40" as="geometry" />
        </mxCell>
        <mxCell id="4LsymIjCZTTFca7TZVZm-147" style="edgeStyle=orthogonalEdgeStyle;rounded=0;orthogonalLoop=1;jettySize=auto;html=1;" parent="1" source="4LsymIjCZTTFca7TZVZm-13" target="4LsymIjCZTTFca7TZVZm-137" edge="1">
          <mxGeometry relative="1" as="geometry" />
        </mxCell>
        <mxCell id="4LsymIjCZTTFca7TZVZm-13" value="Push to QS" style="shape=parallelogram;perimeter=parallelogramPerimeter;whiteSpace=wrap;html=1;fixedSize=1;fillColor=#e1d5e7;strokeColor=#9673a6;" parent="1" vertex="1">
          <mxGeometry x="400" y="920" width="120" height="40" as="geometry" />
        </mxCell>
        <mxCell id="4LsymIjCZTTFca7TZVZm-24" style="edgeStyle=orthogonalEdgeStyle;rounded=0;orthogonalLoop=1;jettySize=auto;html=1;entryX=0;entryY=0.5;entryDx=0;entryDy=0;" parent="1" source="4LsymIjCZTTFca7TZVZm-20" target="4LsymIjCZTTFca7TZVZm-23" edge="1">
          <mxGeometry relative="1" as="geometry" />
        </mxCell>
        <mxCell id="4LsymIjCZTTFca7TZVZm-25" value="Yes" style="edgeLabel;html=1;align=center;verticalAlign=middle;resizable=0;points=[];" parent="4LsymIjCZTTFca7TZVZm-24" vertex="1" connectable="0">
          <mxGeometry x="-0.2353" y="1" relative="1" as="geometry">
            <mxPoint as="offset" />
          </mxGeometry>
        </mxCell>
        <mxCell id="4LsymIjCZTTFca7TZVZm-31" style="edgeStyle=orthogonalEdgeStyle;rounded=0;orthogonalLoop=1;jettySize=auto;html=1;" parent="1" source="4LsymIjCZTTFca7TZVZm-20" target="4LsymIjCZTTFca7TZVZm-30" edge="1">
          <mxGeometry relative="1" as="geometry" />
        </mxCell>
        <mxCell id="4LsymIjCZTTFca7TZVZm-32" value="No" style="edgeLabel;html=1;align=center;verticalAlign=middle;resizable=0;points=[];" parent="4LsymIjCZTTFca7TZVZm-31" vertex="1" connectable="0">
          <mxGeometry x="-0.4897" y="1" relative="1" as="geometry">
            <mxPoint x="1" y="2" as="offset" />
          </mxGeometry>
        </mxCell>
        <mxCell id="4LsymIjCZTTFca7TZVZm-20" value="Valid&lt;div&gt;value?&lt;/div&gt;" style="rhombus;whiteSpace=wrap;html=1;fontSize=10;" parent="1" vertex="1">
          <mxGeometry x="600" y="200" width="120" height="40" as="geometry" />
        </mxCell>
        <mxCell id="4LsymIjCZTTFca7TZVZm-23" value="updatePermission" style="rounded=1;whiteSpace=wrap;html=1;" parent="1" vertex="1">
          <mxGeometry x="800" y="200" width="120" height="40" as="geometry" />
        </mxCell>
        <mxCell id="4LsymIjCZTTFca7TZVZm-27" value="END" style="strokeWidth=2;html=1;shape=mxgraph.flowchart.start_2;whiteSpace=wrap;fillColor=#d5e8d4;strokeColor=#82b366;" parent="1" vertex="1">
          <mxGeometry x="1560" y="200" width="40" height="40" as="geometry" />
        </mxCell>
        <mxCell id="4LsymIjCZTTFca7TZVZm-30" value="W" style="strokeWidth=2;html=1;shape=mxgraph.flowchart.start_2;whiteSpace=wrap;fillColor=#fff2cc;strokeColor=#d6b656;" parent="1" vertex="1">
          <mxGeometry x="640" y="280" width="40" height="40" as="geometry" />
        </mxCell>
        <mxCell id="4LsymIjCZTTFca7TZVZm-38" style="edgeStyle=orthogonalEdgeStyle;rounded=0;orthogonalLoop=1;jettySize=auto;html=1;fillColor=#f8cecc;strokeColor=light-dark(#000000, #d7817e);" parent="1" source="4LsymIjCZTTFca7TZVZm-33" target="4LsymIjCZTTFca7TZVZm-37" edge="1">
          <mxGeometry relative="1" as="geometry" />
        </mxCell>
        <mxCell id="4LsymIjCZTTFca7TZVZm-39" value="No" style="edgeLabel;html=1;align=center;verticalAlign=middle;resizable=0;points=[];" parent="4LsymIjCZTTFca7TZVZm-38" vertex="1" connectable="0">
          <mxGeometry x="-0.2824" y="-1" relative="1" as="geometry">
            <mxPoint as="offset" />
          </mxGeometry>
        </mxCell>
        <mxCell id="4LsymIjCZTTFca7TZVZm-67" style="edgeStyle=orthogonalEdgeStyle;rounded=0;orthogonalLoop=1;jettySize=auto;html=1;entryX=0.5;entryY=0;entryDx=0;entryDy=0;" parent="1" source="4LsymIjCZTTFca7TZVZm-33" target="4LsymIjCZTTFca7TZVZm-66" edge="1">
          <mxGeometry relative="1" as="geometry">
            <Array as="points">
              <mxPoint x="1160" y="220" />
            </Array>
          </mxGeometry>
        </mxCell>
        <mxCell id="4LsymIjCZTTFca7TZVZm-35" style="edgeStyle=orthogonalEdgeStyle;rounded=0;orthogonalLoop=1;jettySize=auto;html=1;" parent="1" source="4LsymIjCZTTFca7TZVZm-33" target="4LsymIjCZTTFca7TZVZm-40" edge="1">
          <mxGeometry relative="1" as="geometry">
            <mxPoint x="1024.71" y="220" as="targetPoint" />
          </mxGeometry>
        </mxCell>
        <mxCell id="4LsymIjCZTTFca7TZVZm-56" value="Yes" style="edgeLabel;html=1;align=center;verticalAlign=middle;resizable=0;points=[];" parent="4LsymIjCZTTFca7TZVZm-35" vertex="1" connectable="0">
          <mxGeometry x="-0.5882" y="1" relative="1" as="geometry">
            <mxPoint x="12" y="1" as="offset" />
          </mxGeometry>
        </mxCell>
        <mxCell id="4LsymIjCZTTFca7TZVZm-33" value="update&lt;div&gt;s&lt;span style=&quot;background-color: transparent; color: light-dark(rgb(0, 0, 0), rgb(255, 255, 255));&quot;&gt;ucceed?&lt;/span&gt;&lt;/div&gt;" style="rhombus;whiteSpace=wrap;html=1;fontSize=10;" parent="1" vertex="1">
          <mxGeometry x="1000" y="200" width="120" height="40" as="geometry" />
        </mxCell>
        <mxCell id="4LsymIjCZTTFca7TZVZm-34" style="edgeStyle=orthogonalEdgeStyle;rounded=0;orthogonalLoop=1;jettySize=auto;html=1;entryX=0;entryY=0.5;entryDx=0;entryDy=0;" parent="1" source="4LsymIjCZTTFca7TZVZm-23" target="4LsymIjCZTTFca7TZVZm-33" edge="1">
          <mxGeometry relative="1" as="geometry" />
        </mxCell>
        <mxCell id="4LsymIjCZTTFca7TZVZm-37" value="ERR" style="strokeWidth=2;html=1;shape=mxgraph.flowchart.start_2;whiteSpace=wrap;fillColor=#f8cecc;strokeColor=#b85450;" parent="1" vertex="1">
          <mxGeometry x="1040" y="280" width="40" height="40" as="geometry" />
        </mxCell>
        <mxCell id="4LsymIjCZTTFca7TZVZm-42" style="edgeStyle=orthogonalEdgeStyle;rounded=0;orthogonalLoop=1;jettySize=auto;html=1;entryX=0;entryY=0.5;entryDx=0;entryDy=0;" parent="1" source="4LsymIjCZTTFca7TZVZm-40" target="4LsymIjCZTTFca7TZVZm-41" edge="1">
          <mxGeometry relative="1" as="geometry" />
        </mxCell>
        <mxCell id="4LsymIjCZTTFca7TZVZm-40" value="fetchPermissions / update PermissionTable" style="rounded=1;whiteSpace=wrap;html=1;fontSize=11;" parent="1" vertex="1">
          <mxGeometry x="1200" y="200" width="120" height="40" as="geometry" />
        </mxCell>
        <mxCell id="4LsymIjCZTTFca7TZVZm-43" style="edgeStyle=orthogonalEdgeStyle;rounded=0;orthogonalLoop=1;jettySize=auto;html=1;" parent="1" source="4LsymIjCZTTFca7TZVZm-41" target="4LsymIjCZTTFca7TZVZm-27" edge="1">
          <mxGeometry relative="1" as="geometry" />
        </mxCell>
        <mxCell id="4LsymIjCZTTFca7TZVZm-101" value="Yes" style="edgeLabel;html=1;align=center;verticalAlign=middle;resizable=0;points=[];" parent="4LsymIjCZTTFca7TZVZm-43" vertex="1" connectable="0">
          <mxGeometry x="-0.25" y="2" relative="1" as="geometry">
            <mxPoint as="offset" />
          </mxGeometry>
        </mxCell>
        <mxCell id="4LsymIjCZTTFca7TZVZm-45" style="edgeStyle=orthogonalEdgeStyle;rounded=0;orthogonalLoop=1;jettySize=auto;html=1;" parent="1" source="4LsymIjCZTTFca7TZVZm-41" target="4LsymIjCZTTFca7TZVZm-44" edge="1">
          <mxGeometry relative="1" as="geometry" />
        </mxCell>
        <mxCell id="4LsymIjCZTTFca7TZVZm-100" value="No" style="edgeLabel;html=1;align=center;verticalAlign=middle;resizable=0;points=[];" parent="4LsymIjCZTTFca7TZVZm-45" vertex="1" connectable="0">
          <mxGeometry x="-0.2636" y="2" relative="1" as="geometry">
            <mxPoint as="offset" />
          </mxGeometry>
        </mxCell>
        <mxCell id="4LsymIjCZTTFca7TZVZm-41" value="refresh&lt;br&gt;&lt;div&gt;s&lt;span style=&quot;background-color: transparent; color: light-dark(rgb(0, 0, 0), rgb(255, 255, 255));&quot;&gt;ucceed?&lt;/span&gt;&lt;/div&gt;" style="rhombus;whiteSpace=wrap;html=1;fontSize=10;" parent="1" vertex="1">
          <mxGeometry x="1400" y="200" width="120" height="40" as="geometry" />
        </mxCell>
        <mxCell id="4LsymIjCZTTFca7TZVZm-44" value="W: try refresh" style="strokeWidth=2;html=1;shape=mxgraph.flowchart.start_2;whiteSpace=wrap;fillColor=#fff2cc;strokeColor=#d6b656;" parent="1" vertex="1">
          <mxGeometry x="1410" y="280" width="100" height="40" as="geometry" />
        </mxCell>
        <mxCell id="4LsymIjCZTTFca7TZVZm-57" style="edgeStyle=orthogonalEdgeStyle;rounded=0;orthogonalLoop=1;jettySize=auto;html=1;entryX=0;entryY=0.5;entryDx=0;entryDy=0;" parent="1" source="4LsymIjCZTTFca7TZVZm-46" target="4LsymIjCZTTFca7TZVZm-53" edge="1">
          <mxGeometry relative="1" as="geometry" />
        </mxCell>
        <mxCell id="4LsymIjCZTTFca7TZVZm-46" value="deletePermission" style="rounded=1;whiteSpace=wrap;html=1;" parent="1" vertex="1">
          <mxGeometry x="600" y="440" width="120" height="40" as="geometry" />
        </mxCell>
        <mxCell id="4LsymIjCZTTFca7TZVZm-51" style="edgeStyle=orthogonalEdgeStyle;rounded=0;orthogonalLoop=1;jettySize=auto;html=1;fillColor=#f8cecc;strokeColor=light-dark(#000000, #d7817e);" parent="1" source="4LsymIjCZTTFca7TZVZm-53" target="4LsymIjCZTTFca7TZVZm-54" edge="1">
          <mxGeometry relative="1" as="geometry" />
        </mxCell>
        <mxCell id="4LsymIjCZTTFca7TZVZm-52" value="No" style="edgeLabel;html=1;align=center;verticalAlign=middle;resizable=0;points=[];" parent="4LsymIjCZTTFca7TZVZm-51" vertex="1" connectable="0">
          <mxGeometry x="-0.2824" y="-1" relative="1" as="geometry">
            <mxPoint as="offset" />
          </mxGeometry>
        </mxCell>
        <mxCell id="4LsymIjCZTTFca7TZVZm-75" style="edgeStyle=orthogonalEdgeStyle;rounded=0;orthogonalLoop=1;jettySize=auto;html=1;entryX=0;entryY=0.5;entryDx=0;entryDy=0;" parent="1" source="4LsymIjCZTTFca7TZVZm-53" target="4LsymIjCZTTFca7TZVZm-66" edge="1">
          <mxGeometry relative="1" as="geometry">
            <Array as="points">
              <mxPoint x="1060" y="460" />
              <mxPoint x="1060" y="540" />
            </Array>
          </mxGeometry>
        </mxCell>
        <mxCell id="4LsymIjCZTTFca7TZVZm-53" value="delete&lt;div&gt;s&lt;span style=&quot;background-color: transparent; color: light-dark(rgb(0, 0, 0), rgb(255, 255, 255));&quot;&gt;ucceed?&lt;/span&gt;&lt;/div&gt;" style="rhombus;whiteSpace=wrap;html=1;fontSize=10;" parent="1" vertex="1">
          <mxGeometry x="800" y="440" width="120" height="40" as="geometry" />
        </mxCell>
        <mxCell id="4LsymIjCZTTFca7TZVZm-58" style="edgeStyle=orthogonalEdgeStyle;rounded=0;orthogonalLoop=1;jettySize=auto;html=1;jumpStyle=arc;exitX=1;exitY=0.5;exitDx=0;exitDy=0;" parent="1" source="4LsymIjCZTTFca7TZVZm-53" edge="1">
          <mxGeometry relative="1" as="geometry">
            <mxPoint x="890" y="500" as="sourcePoint" />
            <mxPoint x="1260" y="240" as="targetPoint" />
            <Array as="points">
              <mxPoint x="920" y="461" />
              <mxPoint x="1260" y="461" />
              <mxPoint x="1260" y="240" />
            </Array>
          </mxGeometry>
        </mxCell>
        <mxCell id="4LsymIjCZTTFca7TZVZm-59" value="Yes" style="edgeLabel;html=1;align=center;verticalAlign=middle;resizable=0;points=[];" parent="4LsymIjCZTTFca7TZVZm-58" vertex="1" connectable="0">
          <mxGeometry x="-0.7692" y="-1" relative="1" as="geometry">
            <mxPoint as="offset" />
          </mxGeometry>
        </mxCell>
        <mxCell id="4LsymIjCZTTFca7TZVZm-54" value="ERR" style="strokeWidth=2;html=1;shape=mxgraph.flowchart.start_2;whiteSpace=wrap;fillColor=#f8cecc;strokeColor=#b85450;" parent="1" vertex="1">
          <mxGeometry x="840" y="520" width="40" height="40" as="geometry" />
        </mxCell>
        <mxCell id="4LsymIjCZTTFca7TZVZm-90" style="edgeStyle=orthogonalEdgeStyle;rounded=0;orthogonalLoop=1;jettySize=auto;html=1;entryX=0.5;entryY=0;entryDx=0;entryDy=0;" parent="1" source="4LsymIjCZTTFca7TZVZm-60" target="4LsymIjCZTTFca7TZVZm-89" edge="1">
          <mxGeometry relative="1" as="geometry" />
        </mxCell>
        <mxCell id="4LsymIjCZTTFca7TZVZm-60" value="fetchDatasets" style="rounded=1;whiteSpace=wrap;html=1;" parent="1" vertex="1">
          <mxGeometry x="40" y="160" width="120" height="40" as="geometry" />
        </mxCell>
        <mxCell id="4LsymIjCZTTFca7TZVZm-121" style="edgeStyle=orthogonalEdgeStyle;rounded=0;orthogonalLoop=1;jettySize=auto;html=1;entryX=0;entryY=0.5;entryDx=0;entryDy=0;" parent="1" source="4LsymIjCZTTFca7TZVZm-63" target="4LsymIjCZTTFca7TZVZm-120" edge="1">
          <mxGeometry relative="1" as="geometry" />
        </mxCell>
        <mxCell id="4LsymIjCZTTFca7TZVZm-63" value="fetchPermissions for the selected DataSet" style="rounded=1;whiteSpace=wrap;html=1;" parent="1" vertex="1">
          <mxGeometry x="600" y="680" width="120" height="40" as="geometry" />
        </mxCell>
        <mxCell id="4LsymIjCZTTFca7TZVZm-68" style="edgeStyle=orthogonalEdgeStyle;rounded=0;orthogonalLoop=1;jettySize=auto;html=1;entryX=0.5;entryY=0;entryDx=0;entryDy=0;flowAnimation=0;shadow=0;jumpStyle=arc;" parent="1" source="4LsymIjCZTTFca7TZVZm-66" target="4LsymIjCZTTFca7TZVZm-63" edge="1">
          <mxGeometry relative="1" as="geometry">
            <Array as="points">
              <mxPoint x="1160" y="640" />
              <mxPoint x="660" y="640" />
            </Array>
          </mxGeometry>
        </mxCell>
        <mxCell id="4LsymIjCZTTFca7TZVZm-69" value="Yes" style="edgeLabel;html=1;align=center;verticalAlign=middle;resizable=0;points=[];" parent="4LsymIjCZTTFca7TZVZm-68" vertex="1" connectable="0">
          <mxGeometry x="-0.6303" y="-2" relative="1" as="geometry">
            <mxPoint x="35" y="-48" as="offset" />
          </mxGeometry>
        </mxCell>
        <mxCell id="4LsymIjCZTTFca7TZVZm-71" style="edgeStyle=orthogonalEdgeStyle;rounded=0;orthogonalLoop=1;jettySize=auto;html=1;" parent="1" source="4LsymIjCZTTFca7TZVZm-66" target="4LsymIjCZTTFca7TZVZm-70" edge="1">
          <mxGeometry relative="1" as="geometry" />
        </mxCell>
        <mxCell id="4LsymIjCZTTFca7TZVZm-74" value="No" style="edgeLabel;html=1;align=center;verticalAlign=middle;resizable=0;points=[];" parent="4LsymIjCZTTFca7TZVZm-71" vertex="1" connectable="0">
          <mxGeometry x="0.0612" y="1" relative="1" as="geometry">
            <mxPoint as="offset" />
          </mxGeometry>
        </mxCell>
        <mxCell id="4LsymIjCZTTFca7TZVZm-66" value="is CSV&amp;nbsp;&lt;div&gt;visible?&lt;/div&gt;" style="rhombus;whiteSpace=wrap;html=1;fontSize=10;" parent="1" vertex="1">
          <mxGeometry x="1120" y="520" width="80" height="40" as="geometry" />
        </mxCell>
        <mxCell id="4LsymIjCZTTFca7TZVZm-70" value="END" style="strokeWidth=2;html=1;shape=mxgraph.flowchart.start_2;whiteSpace=wrap;fillColor=#d5e8d4;strokeColor=#82b366;" parent="1" vertex="1">
          <mxGeometry x="1240" y="520" width="40" height="40" as="geometry" />
        </mxCell>
        <mxCell id="4LsymIjCZTTFca7TZVZm-77" style="edgeStyle=orthogonalEdgeStyle;rounded=0;orthogonalLoop=1;jettySize=auto;html=1;" parent="1" source="4LsymIjCZTTFca7TZVZm-76" target="4LsymIjCZTTFca7TZVZm-3" edge="1">
          <mxGeometry relative="1" as="geometry" />
        </mxCell>
        <mxCell id="4LsymIjCZTTFca7TZVZm-76" value="Show Region and DataSet details" style="rounded=1;whiteSpace=wrap;html=1;" parent="1" vertex="1">
          <mxGeometry x="40" y="320" width="120" height="40" as="geometry" />
        </mxCell>
        <mxCell id="4LsymIjCZTTFca7TZVZm-81" style="edgeStyle=orthogonalEdgeStyle;rounded=0;orthogonalLoop=1;jettySize=auto;html=1;entryX=0.5;entryY=0;entryDx=0;entryDy=0;" parent="1" source="4LsymIjCZTTFca7TZVZm-79" target="4LsymIjCZTTFca7TZVZm-80" edge="1">
          <mxGeometry relative="1" as="geometry" />
        </mxCell>
        <mxCell id="4LsymIjCZTTFca7TZVZm-79" value="fetchRegions" style="rounded=1;whiteSpace=wrap;html=1;" parent="1" vertex="1">
          <mxGeometry x="40" y="-80" width="120" height="40" as="geometry" />
        </mxCell>
        <mxCell id="4LsymIjCZTTFca7TZVZm-83" style="edgeStyle=orthogonalEdgeStyle;rounded=0;orthogonalLoop=1;jettySize=auto;html=1;" parent="1" source="4LsymIjCZTTFca7TZVZm-80" target="4LsymIjCZTTFca7TZVZm-82" edge="1">
          <mxGeometry relative="1" as="geometry" />
        </mxCell>
        <mxCell id="4LsymIjCZTTFca7TZVZm-94" value="No" style="edgeLabel;html=1;align=center;verticalAlign=middle;resizable=0;points=[];" parent="4LsymIjCZTTFca7TZVZm-83" vertex="1" connectable="0">
          <mxGeometry x="-0.1471" y="-1" relative="1" as="geometry">
            <mxPoint as="offset" />
          </mxGeometry>
        </mxCell>
        <mxCell id="4LsymIjCZTTFca7TZVZm-84" style="edgeStyle=orthogonalEdgeStyle;rounded=0;orthogonalLoop=1;jettySize=auto;html=1;entryX=0.5;entryY=0;entryDx=0;entryDy=0;" parent="1" source="4LsymIjCZTTFca7TZVZm-80" target="4LsymIjCZTTFca7TZVZm-2" edge="1">
          <mxGeometry relative="1" as="geometry" />
        </mxCell>
        <mxCell id="4LsymIjCZTTFca7TZVZm-85" value="Yes" style="edgeLabel;html=1;align=center;verticalAlign=middle;resizable=0;points=[];" parent="4LsymIjCZTTFca7TZVZm-84" vertex="1" connectable="0">
          <mxGeometry x="-0.1667" y="2" relative="1" as="geometry">
            <mxPoint x="-1" y="2" as="offset" />
          </mxGeometry>
        </mxCell>
        <mxCell id="4LsymIjCZTTFca7TZVZm-80" value="Regions&lt;div&gt;fetched?&lt;/div&gt;" style="rhombus;whiteSpace=wrap;html=1;fontSize=10;" parent="1" vertex="1">
          <mxGeometry x="40" width="120" height="40" as="geometry" />
        </mxCell>
        <mxCell id="4LsymIjCZTTFca7TZVZm-82" value="ERR" style="strokeWidth=2;html=1;shape=mxgraph.flowchart.start_2;whiteSpace=wrap;fillColor=#f8cecc;strokeColor=#b85450;" parent="1" vertex="1">
          <mxGeometry x="200" width="40" height="40" as="geometry" />
        </mxCell>
        <mxCell id="4LsymIjCZTTFca7TZVZm-95" style="edgeStyle=orthogonalEdgeStyle;rounded=0;orthogonalLoop=1;jettySize=auto;html=1;entryX=0.5;entryY=0;entryDx=0;entryDy=0;" parent="1" source="4LsymIjCZTTFca7TZVZm-89" target="4LsymIjCZTTFca7TZVZm-76" edge="1">
          <mxGeometry relative="1" as="geometry" />
        </mxCell>
        <mxCell id="4LsymIjCZTTFca7TZVZm-96" value="Yes" style="edgeLabel;html=1;align=center;verticalAlign=middle;resizable=0;points=[];" parent="4LsymIjCZTTFca7TZVZm-95" vertex="1" connectable="0">
          <mxGeometry x="-0.2529" y="-1" relative="1" as="geometry">
            <mxPoint as="offset" />
          </mxGeometry>
        </mxCell>
        <mxCell id="4LsymIjCZTTFca7TZVZm-89" value="DataSets&lt;div&gt;fetched?&lt;/div&gt;" style="rhombus;whiteSpace=wrap;html=1;fontSize=10;" parent="1" vertex="1">
          <mxGeometry x="60" y="240" width="80" height="40" as="geometry" />
        </mxCell>
        <mxCell id="4LsymIjCZTTFca7TZVZm-91" value="ERR" style="strokeWidth=2;html=1;shape=mxgraph.flowchart.start_2;whiteSpace=wrap;fillColor=#f8cecc;strokeColor=#b85450;" parent="1" vertex="1">
          <mxGeometry x="200" y="240" width="40" height="40" as="geometry" />
        </mxCell>
        <mxCell id="4LsymIjCZTTFca7TZVZm-92" style="edgeStyle=orthogonalEdgeStyle;rounded=0;orthogonalLoop=1;jettySize=auto;html=1;entryX=0;entryY=0.5;entryDx=0;entryDy=0;entryPerimeter=0;" parent="1" source="4LsymIjCZTTFca7TZVZm-89" target="4LsymIjCZTTFca7TZVZm-91" edge="1">
          <mxGeometry relative="1" as="geometry" />
        </mxCell>
        <mxCell id="4LsymIjCZTTFca7TZVZm-93" value="No" style="edgeLabel;html=1;align=center;verticalAlign=middle;resizable=0;points=[];" parent="4LsymIjCZTTFca7TZVZm-92" vertex="1" connectable="0">
          <mxGeometry x="-0.0588" y="-2" relative="1" as="geometry">
            <mxPoint as="offset" />
          </mxGeometry>
        </mxCell>
        <mxCell id="4LsymIjCZTTFca7TZVZm-99" style="edgeStyle=orthogonalEdgeStyle;rounded=0;orthogonalLoop=1;jettySize=auto;html=1;entryX=0;entryY=0.5;entryDx=0;entryDy=0;" parent="1" source="4LsymIjCZTTFca7TZVZm-97" target="4LsymIjCZTTFca7TZVZm-10" edge="1">
          <mxGeometry relative="1" as="geometry">
            <Array as="points">
              <mxPoint x="360" y="420" />
              <mxPoint x="360" y="220" />
            </Array>
          </mxGeometry>
        </mxCell>
        <mxCell id="4LsymIjCZTTFca7TZVZm-102" style="edgeStyle=orthogonalEdgeStyle;rounded=0;orthogonalLoop=1;jettySize=auto;html=1;" parent="1" source="4LsymIjCZTTFca7TZVZm-97" target="4LsymIjCZTTFca7TZVZm-11" edge="1">
          <mxGeometry relative="1" as="geometry" />
        </mxCell>
        <mxCell id="4LsymIjCZTTFca7TZVZm-103" style="edgeStyle=orthogonalEdgeStyle;rounded=0;orthogonalLoop=1;jettySize=auto;html=1;entryX=0;entryY=0.5;entryDx=0;entryDy=0;" parent="1" source="4LsymIjCZTTFca7TZVZm-97" target="4LsymIjCZTTFca7TZVZm-12" edge="1">
          <mxGeometry relative="1" as="geometry">
            <Array as="points">
              <mxPoint x="360" y="420" />
              <mxPoint x="360" y="700" />
            </Array>
          </mxGeometry>
        </mxCell>
        <mxCell id="4LsymIjCZTTFca7TZVZm-104" style="edgeStyle=orthogonalEdgeStyle;rounded=0;orthogonalLoop=1;jettySize=auto;html=1;entryX=0;entryY=0.5;entryDx=0;entryDy=0;" parent="1" source="4LsymIjCZTTFca7TZVZm-97" target="4LsymIjCZTTFca7TZVZm-8" edge="1">
          <mxGeometry relative="1" as="geometry">
            <Array as="points">
              <mxPoint x="360" y="420" />
              <mxPoint x="360" y="-20" />
            </Array>
          </mxGeometry>
        </mxCell>
        <mxCell id="4LsymIjCZTTFca7TZVZm-119" style="edgeStyle=orthogonalEdgeStyle;rounded=0;orthogonalLoop=1;jettySize=auto;html=1;entryX=0;entryY=0.5;entryDx=0;entryDy=0;" parent="1" source="4LsymIjCZTTFca7TZVZm-97" target="4LsymIjCZTTFca7TZVZm-13" edge="1">
          <mxGeometry relative="1" as="geometry">
            <Array as="points">
              <mxPoint x="360" y="420" />
              <mxPoint x="360" y="940" />
            </Array>
          </mxGeometry>
        </mxCell>
        <mxCell id="4LsymIjCZTTFca7TZVZm-97" value="Wait User&lt;div&gt;Action&amp;nbsp;&lt;span style=&quot;background-color: transparent; color: light-dark(rgb(0, 0, 0), rgb(255, 255, 255));&quot;&gt;Selection&lt;/span&gt;&lt;/div&gt;" style="shape=parallelogram;perimeter=parallelogramPerimeter;whiteSpace=wrap;html=1;fixedSize=1;" parent="1" vertex="1">
          <mxGeometry x="200" y="400" width="120" height="40" as="geometry" />
        </mxCell>
        <mxCell id="4LsymIjCZTTFca7TZVZm-128" style="edgeStyle=orthogonalEdgeStyle;rounded=0;orthogonalLoop=1;jettySize=auto;html=1;" parent="1" source="4LsymIjCZTTFca7TZVZm-107" target="4LsymIjCZTTFca7TZVZm-123" edge="1">
          <mxGeometry relative="1" as="geometry" />
        </mxCell>
        <mxCell id="4LsymIjCZTTFca7TZVZm-107" value="Generate CSV Output" style="rounded=1;whiteSpace=wrap;html=1;" parent="1" vertex="1">
          <mxGeometry x="1000" y="680" width="120" height="40" as="geometry" />
        </mxCell>
        <mxCell id="4LsymIjCZTTFca7TZVZm-117" style="edgeStyle=orthogonalEdgeStyle;rounded=0;orthogonalLoop=1;jettySize=auto;html=1;entryX=0.5;entryY=1;entryDx=0;entryDy=0;" parent="1" source="4LsymIjCZTTFca7TZVZm-110" target="4LsymIjCZTTFca7TZVZm-97" edge="1">
          <mxGeometry relative="1" as="geometry" />
        </mxCell>
        <mxCell id="4LsymIjCZTTFca7TZVZm-118" value="Yes" style="edgeLabel;html=1;align=center;verticalAlign=middle;resizable=0;points=[];" parent="4LsymIjCZTTFca7TZVZm-117" vertex="1" connectable="0">
          <mxGeometry x="-0.2784" y="3" relative="1" as="geometry">
            <mxPoint x="-28" y="3" as="offset" />
          </mxGeometry>
        </mxCell>
        <mxCell id="4LsymIjCZTTFca7TZVZm-110" value="Permissions&lt;div&gt;Fetched?&lt;/div&gt;" style="rhombus;whiteSpace=wrap;html=1;fontSize=10;" parent="1" vertex="1">
          <mxGeometry x="40" y="480" width="120" height="40" as="geometry" />
        </mxCell>
        <mxCell id="4LsymIjCZTTFca7TZVZm-114" value="ERR" style="strokeWidth=2;html=1;shape=mxgraph.flowchart.start_2;whiteSpace=wrap;fillColor=#f8cecc;strokeColor=#b85450;" parent="1" vertex="1">
          <mxGeometry x="80" y="560" width="40" height="40" as="geometry" />
        </mxCell>
        <mxCell id="4LsymIjCZTTFca7TZVZm-115" style="edgeStyle=orthogonalEdgeStyle;rounded=0;orthogonalLoop=1;jettySize=auto;html=1;entryX=0.5;entryY=0;entryDx=0;entryDy=0;entryPerimeter=0;" parent="1" source="4LsymIjCZTTFca7TZVZm-110" target="4LsymIjCZTTFca7TZVZm-114" edge="1">
          <mxGeometry relative="1" as="geometry" />
        </mxCell>
        <mxCell id="4LsymIjCZTTFca7TZVZm-116" value="No" style="edgeLabel;html=1;align=center;verticalAlign=middle;resizable=0;points=[];" parent="4LsymIjCZTTFca7TZVZm-115" vertex="1" connectable="0">
          <mxGeometry x="-0.4" relative="1" as="geometry">
            <mxPoint as="offset" />
          </mxGeometry>
        </mxCell>
        <mxCell id="4LsymIjCZTTFca7TZVZm-122" style="edgeStyle=orthogonalEdgeStyle;rounded=0;orthogonalLoop=1;jettySize=auto;html=1;entryX=0;entryY=0.5;entryDx=0;entryDy=0;" parent="1" source="4LsymIjCZTTFca7TZVZm-120" target="4LsymIjCZTTFca7TZVZm-107" edge="1">
          <mxGeometry relative="1" as="geometry" />
        </mxCell>
        <mxCell id="4LsymIjCZTTFca7TZVZm-135" value="Yes" style="edgeLabel;html=1;align=center;verticalAlign=middle;resizable=0;points=[];" parent="4LsymIjCZTTFca7TZVZm-122" vertex="1" connectable="0">
          <mxGeometry x="-0.3068" relative="1" as="geometry">
            <mxPoint as="offset" />
          </mxGeometry>
        </mxCell>
        <mxCell id="4LsymIjCZTTFca7TZVZm-131" style="edgeStyle=orthogonalEdgeStyle;rounded=0;orthogonalLoop=1;jettySize=auto;html=1;" parent="1" source="4LsymIjCZTTFca7TZVZm-120" target="4LsymIjCZTTFca7TZVZm-124" edge="1">
          <mxGeometry relative="1" as="geometry" />
        </mxCell>
        <mxCell id="4LsymIjCZTTFca7TZVZm-133" value="No" style="edgeLabel;html=1;align=center;verticalAlign=middle;resizable=0;points=[];" parent="4LsymIjCZTTFca7TZVZm-131" vertex="1" connectable="0">
          <mxGeometry x="0.1455" relative="1" as="geometry">
            <mxPoint as="offset" />
          </mxGeometry>
        </mxCell>
        <mxCell id="4LsymIjCZTTFca7TZVZm-120" value="Permissions&lt;div&gt;Fetched?&lt;/div&gt;" style="rhombus;whiteSpace=wrap;html=1;fontSize=10;" parent="1" vertex="1">
          <mxGeometry x="800" y="680" width="120" height="40" as="geometry" />
        </mxCell>
        <mxCell id="4LsymIjCZTTFca7TZVZm-129" style="edgeStyle=orthogonalEdgeStyle;rounded=0;orthogonalLoop=1;jettySize=auto;html=1;" parent="1" source="4LsymIjCZTTFca7TZVZm-123" target="4LsymIjCZTTFca7TZVZm-126" edge="1">
          <mxGeometry relative="1" as="geometry" />
        </mxCell>
        <mxCell id="4LsymIjCZTTFca7TZVZm-134" value="Yes" style="edgeLabel;html=1;align=center;verticalAlign=middle;resizable=0;points=[];" parent="4LsymIjCZTTFca7TZVZm-129" vertex="1" connectable="0">
          <mxGeometry x="-0.0114" y="-1" relative="1" as="geometry">
            <mxPoint as="offset" />
          </mxGeometry>
        </mxCell>
        <mxCell id="4LsymIjCZTTFca7TZVZm-132" value="No" style="edgeStyle=orthogonalEdgeStyle;rounded=0;orthogonalLoop=1;jettySize=auto;html=1;" parent="1" source="4LsymIjCZTTFca7TZVZm-123" target="4LsymIjCZTTFca7TZVZm-125" edge="1">
          <mxGeometry relative="1" as="geometry" />
        </mxCell>
        <mxCell id="4LsymIjCZTTFca7TZVZm-123" value="Output&lt;div&gt;Generated?&lt;/div&gt;" style="rhombus;whiteSpace=wrap;html=1;fontSize=10;" parent="1" vertex="1">
          <mxGeometry x="1200" y="680" width="120" height="40" as="geometry" />
        </mxCell>
        <mxCell id="4LsymIjCZTTFca7TZVZm-124" value="ERR" style="strokeWidth=2;html=1;shape=mxgraph.flowchart.start_2;whiteSpace=wrap;fillColor=#f8cecc;strokeColor=#b85450;" parent="1" vertex="1">
          <mxGeometry x="840" y="760" width="40" height="40" as="geometry" />
        </mxCell>
        <mxCell id="4LsymIjCZTTFca7TZVZm-125" value="ERR" style="strokeWidth=2;html=1;shape=mxgraph.flowchart.start_2;whiteSpace=wrap;fillColor=#f8cecc;strokeColor=#b85450;" parent="1" vertex="1">
          <mxGeometry x="1241" y="760" width="40" height="40" as="geometry" />
        </mxCell>
        <mxCell id="4LsymIjCZTTFca7TZVZm-130" style="edgeStyle=orthogonalEdgeStyle;rounded=0;orthogonalLoop=1;jettySize=auto;html=1;" parent="1" source="4LsymIjCZTTFca7TZVZm-126" target="4LsymIjCZTTFca7TZVZm-127" edge="1">
          <mxGeometry relative="1" as="geometry" />
        </mxCell>
        <mxCell id="4LsymIjCZTTFca7TZVZm-126" value="Show Output&lt;div&gt;CodeView&lt;/div&gt;" style="rounded=1;whiteSpace=wrap;html=1;" parent="1" vertex="1">
          <mxGeometry x="1400" y="680" width="120" height="40" as="geometry" />
        </mxCell>
        <mxCell id="4LsymIjCZTTFca7TZVZm-127" value="END" style="strokeWidth=2;html=1;shape=mxgraph.flowchart.start_2;whiteSpace=wrap;fillColor=#d5e8d4;strokeColor=#82b366;" parent="1" vertex="1">
          <mxGeometry x="1560" y="680" width="40" height="40" as="geometry" />
        </mxCell>
        <mxCell id="4LsymIjCZTTFca7TZVZm-136" style="edgeStyle=orthogonalEdgeStyle;rounded=0;orthogonalLoop=1;jettySize=auto;html=1;entryX=0;entryY=0.5;entryDx=0;entryDy=0;" parent="1" source="4LsymIjCZTTFca7TZVZm-137" target="4LsymIjCZTTFca7TZVZm-142" edge="1">
          <mxGeometry relative="1" as="geometry" />
        </mxCell>
        <mxCell id="4LsymIjCZTTFca7TZVZm-137" value="fetchPermissions for the selected DataSet" style="rounded=1;whiteSpace=wrap;html=1;" parent="1" vertex="1">
          <mxGeometry x="600" y="920" width="120" height="40" as="geometry" />
        </mxCell>
        <mxCell id="4LsymIjCZTTFca7TZVZm-138" style="edgeStyle=orthogonalEdgeStyle;rounded=0;orthogonalLoop=1;jettySize=auto;html=1;" parent="1" source="4LsymIjCZTTFca7TZVZm-139" target="4LsymIjCZTTFca7TZVZm-145" edge="1">
          <mxGeometry relative="1" as="geometry" />
        </mxCell>
        <mxCell id="4LsymIjCZTTFca7TZVZm-139" value="Generate CSV Output" style="rounded=1;whiteSpace=wrap;html=1;" parent="1" vertex="1">
          <mxGeometry x="1000" y="920" width="120" height="40" as="geometry" />
        </mxCell>
        <mxCell id="4LsymIjCZTTFca7TZVZm-140" style="edgeStyle=orthogonalEdgeStyle;rounded=0;orthogonalLoop=1;jettySize=auto;html=1;entryX=0;entryY=0.5;entryDx=0;entryDy=0;" parent="1" source="4LsymIjCZTTFca7TZVZm-142" target="4LsymIjCZTTFca7TZVZm-139" edge="1">
          <mxGeometry relative="1" as="geometry" />
        </mxCell>
        <mxCell id="4LsymIjCZTTFca7TZVZm-141" value="Yes" style="edgeLabel;html=1;align=center;verticalAlign=middle;resizable=0;points=[];" parent="4LsymIjCZTTFca7TZVZm-140" vertex="1" connectable="0">
          <mxGeometry x="-0.3068" relative="1" as="geometry">
            <mxPoint as="offset" />
          </mxGeometry>
        </mxCell>
        <mxCell id="4LsymIjCZTTFca7TZVZm-148" style="edgeStyle=orthogonalEdgeStyle;rounded=0;orthogonalLoop=1;jettySize=auto;html=1;" parent="1" source="4LsymIjCZTTFca7TZVZm-142" target="4LsymIjCZTTFca7TZVZm-146" edge="1">
          <mxGeometry relative="1" as="geometry" />
        </mxCell>
        <mxCell id="4LsymIjCZTTFca7TZVZm-151" value="No" style="edgeLabel;html=1;align=center;verticalAlign=middle;resizable=0;points=[];" parent="4LsymIjCZTTFca7TZVZm-148" vertex="1" connectable="0">
          <mxGeometry x="-0.0818" y="-1" relative="1" as="geometry">
            <mxPoint as="offset" />
          </mxGeometry>
        </mxCell>
        <mxCell id="4LsymIjCZTTFca7TZVZm-142" value="Permissions&lt;div&gt;Fetched?&lt;/div&gt;" style="rhombus;whiteSpace=wrap;html=1;fontSize=10;" parent="1" vertex="1">
          <mxGeometry x="800" y="920" width="120" height="40" as="geometry" />
        </mxCell>
        <mxCell id="4LsymIjCZTTFca7TZVZm-143" style="edgeStyle=orthogonalEdgeStyle;rounded=0;orthogonalLoop=1;jettySize=auto;html=1;entryX=0;entryY=0.5;entryDx=0;entryDy=0;" parent="1" source="4LsymIjCZTTFca7TZVZm-145" target="4LsymIjCZTTFca7TZVZm-155" edge="1">
          <mxGeometry relative="1" as="geometry">
            <mxPoint x="1400" y="940" as="targetPoint" />
          </mxGeometry>
        </mxCell>
        <mxCell id="4LsymIjCZTTFca7TZVZm-144" value="Yes" style="edgeLabel;html=1;align=center;verticalAlign=middle;resizable=0;points=[];" parent="4LsymIjCZTTFca7TZVZm-143" vertex="1" connectable="0">
          <mxGeometry x="-0.0114" y="-1" relative="1" as="geometry">
            <mxPoint as="offset" />
          </mxGeometry>
        </mxCell>
        <mxCell id="4LsymIjCZTTFca7TZVZm-145" value="Output&lt;div&gt;Generated?&lt;/div&gt;" style="rhombus;whiteSpace=wrap;html=1;fontSize=10;" parent="1" vertex="1">
          <mxGeometry x="1200" y="920" width="120" height="40" as="geometry" />
        </mxCell>
        <mxCell id="4LsymIjCZTTFca7TZVZm-146" value="ERR" style="strokeWidth=2;html=1;shape=mxgraph.flowchart.start_2;whiteSpace=wrap;fillColor=#f8cecc;strokeColor=#b85450;" parent="1" vertex="1">
          <mxGeometry x="840" y="1000" width="40" height="40" as="geometry" />
        </mxCell>
        <mxCell id="4LsymIjCZTTFca7TZVZm-149" value="ERR" style="strokeWidth=2;html=1;shape=mxgraph.flowchart.start_2;whiteSpace=wrap;fillColor=#f8cecc;strokeColor=#b85450;" parent="1" vertex="1">
          <mxGeometry x="1240" y="1000" width="40" height="40" as="geometry" />
        </mxCell>
        <mxCell id="4LsymIjCZTTFca7TZVZm-150" style="edgeStyle=orthogonalEdgeStyle;rounded=0;orthogonalLoop=1;jettySize=auto;html=1;entryX=0.5;entryY=0;entryDx=0;entryDy=0;entryPerimeter=0;" parent="1" source="4LsymIjCZTTFca7TZVZm-145" target="4LsymIjCZTTFca7TZVZm-149" edge="1">
          <mxGeometry relative="1" as="geometry" />
        </mxCell>
        <mxCell id="4LsymIjCZTTFca7TZVZm-152" value="No" style="edgeLabel;html=1;align=center;verticalAlign=middle;resizable=0;points=[];" parent="4LsymIjCZTTFca7TZVZm-150" vertex="1" connectable="0">
          <mxGeometry x="-0.1273" y="3" relative="1" as="geometry">
            <mxPoint as="offset" />
          </mxGeometry>
        </mxCell>
        <mxCell id="4LsymIjCZTTFca7TZVZm-158" style="edgeStyle=orthogonalEdgeStyle;rounded=0;orthogonalLoop=1;jettySize=auto;html=1;" parent="1" source="4LsymIjCZTTFca7TZVZm-155" target="4LsymIjCZTTFca7TZVZm-156" edge="1">
          <mxGeometry relative="1" as="geometry" />
        </mxCell>
        <mxCell id="4LsymIjCZTTFca7TZVZm-160" value="Yes" style="edgeLabel;html=1;align=center;verticalAlign=middle;resizable=0;points=[];" parent="4LsymIjCZTTFca7TZVZm-158" vertex="1" connectable="0">
          <mxGeometry x="-0.0273" y="2" relative="1" as="geometry">
            <mxPoint as="offset" />
          </mxGeometry>
        </mxCell>
        <mxCell id="4LsymIjCZTTFca7TZVZm-159" style="edgeStyle=orthogonalEdgeStyle;rounded=0;orthogonalLoop=1;jettySize=auto;html=1;entryX=0;entryY=0.5;entryDx=0;entryDy=0;" parent="1" source="4LsymIjCZTTFca7TZVZm-155" target="4LsymIjCZTTFca7TZVZm-157" edge="1">
          <mxGeometry relative="1" as="geometry" />
        </mxCell>
        <mxCell id="4LsymIjCZTTFca7TZVZm-161" value="No" style="edgeLabel;html=1;align=center;verticalAlign=middle;resizable=0;points=[];" parent="4LsymIjCZTTFca7TZVZm-159" vertex="1" connectable="0">
          <mxGeometry x="0.0955" relative="1" as="geometry">
            <mxPoint as="offset" />
          </mxGeometry>
        </mxCell>
        <mxCell id="4LsymIjCZTTFca7TZVZm-155" value="First Time push&lt;div&gt;for this DataSet?&lt;/div&gt;" style="rhombus;whiteSpace=wrap;html=1;fontSize=10;" parent="1" vertex="1">
          <mxGeometry x="1400" y="920" width="120" height="40" as="geometry" />
        </mxCell>
        <mxCell id="4LsymIjCZTTFca7TZVZm-166" value="" style="edgeStyle=orthogonalEdgeStyle;rounded=0;orthogonalLoop=1;jettySize=auto;html=1;" parent="1" source="4LsymIjCZTTFca7TZVZm-156" target="4LsymIjCZTTFca7TZVZm-163" edge="1">
          <mxGeometry relative="1" as="geometry" />
        </mxCell>
        <mxCell id="4LsymIjCZTTFca7TZVZm-156" value="Generate CSV Output" style="rounded=1;whiteSpace=wrap;html=1;" parent="1" vertex="1">
          <mxGeometry x="1600" y="880" width="120" height="40" as="geometry" />
        </mxCell>
        <mxCell id="4LsymIjCZTTFca7TZVZm-171" style="edgeStyle=orthogonalEdgeStyle;rounded=0;orthogonalLoop=1;jettySize=auto;html=1;" parent="1" source="4LsymIjCZTTFca7TZVZm-157" target="4LsymIjCZTTFca7TZVZm-169" edge="1">
          <mxGeometry relative="1" as="geometry" />
        </mxCell>
        <mxCell id="4LsymIjCZTTFca7TZVZm-157" value="Generate CSV Output" style="rounded=1;whiteSpace=wrap;html=1;" parent="1" vertex="1">
          <mxGeometry x="1600" y="960" width="120" height="40" as="geometry" />
        </mxCell>
        <mxCell id="4LsymIjCZTTFca7TZVZm-167" style="edgeStyle=orthogonalEdgeStyle;rounded=0;orthogonalLoop=1;jettySize=auto;html=1;" parent="1" source="4LsymIjCZTTFca7TZVZm-163" target="4LsymIjCZTTFca7TZVZm-164" edge="1">
          <mxGeometry relative="1" as="geometry" />
        </mxCell>
        <mxCell id="4LsymIjCZTTFca7TZVZm-163" value="Create S3 Path dedicated to DataSet" style="rounded=1;whiteSpace=wrap;html=1;" parent="1" vertex="1">
          <mxGeometry x="1800" y="880" width="120" height="40" as="geometry" />
        </mxCell>
        <mxCell id="4LsymIjCZTTFca7TZVZm-168" style="edgeStyle=orthogonalEdgeStyle;rounded=0;orthogonalLoop=1;jettySize=auto;html=1;" parent="1" source="4LsymIjCZTTFca7TZVZm-164" target="4LsymIjCZTTFca7TZVZm-165" edge="1">
          <mxGeometry relative="1" as="geometry" />
        </mxCell>
        <mxCell id="4LsymIjCZTTFca7TZVZm-164" value="Put CSV File to S3" style="rounded=1;whiteSpace=wrap;html=1;" parent="1" vertex="1">
          <mxGeometry x="2000" y="880" width="120" height="40" as="geometry" />
        </mxCell>
        <mxCell id="4LsymIjCZTTFca7TZVZm-165" value="Update DataSet adding RLS" style="rounded=1;whiteSpace=wrap;html=1;" parent="1" vertex="1">
          <mxGeometry x="2200" y="880" width="120" height="40" as="geometry" />
        </mxCell>
        <mxCell id="4LsymIjCZTTFca7TZVZm-172" style="edgeStyle=orthogonalEdgeStyle;rounded=0;orthogonalLoop=1;jettySize=auto;html=1;" parent="1" source="4LsymIjCZTTFca7TZVZm-169" target="4LsymIjCZTTFca7TZVZm-170" edge="1">
          <mxGeometry relative="1" as="geometry" />
        </mxCell>
        <mxCell id="4LsymIjCZTTFca7TZVZm-169" value="Put new version of csv file to S3" style="rounded=1;whiteSpace=wrap;html=1;" parent="1" vertex="1">
          <mxGeometry x="1800" y="960" width="120" height="40" as="geometry" />
        </mxCell>
        <mxCell id="4LsymIjCZTTFca7TZVZm-170" value="Force RLS DataSet Refresh" style="rounded=1;whiteSpace=wrap;html=1;" parent="1" vertex="1">
          <mxGeometry x="2000" y="960" width="120" height="40" as="geometry" />
        </mxCell>
        <mxCell id="4LsymIjCZTTFca7TZVZm-176" style="edgeStyle=orthogonalEdgeStyle;rounded=0;orthogonalLoop=1;jettySize=auto;html=1;" parent="1" source="4LsymIjCZTTFca7TZVZm-173" target="4LsymIjCZTTFca7TZVZm-174" edge="1">
          <mxGeometry relative="1" as="geometry" />
        </mxCell>
        <mxCell id="4LsymIjCZTTFca7TZVZm-173" value="Select if&lt;div&gt;User/Group&lt;/div&gt;" style="shape=parallelogram;perimeter=parallelogramPerimeter;whiteSpace=wrap;html=1;fixedSize=1;" parent="1" vertex="1">
          <mxGeometry x="600" y="-40" width="120" height="40" as="geometry" />
        </mxCell>
        <mxCell id="4LsymIjCZTTFca7TZVZm-181" style="edgeStyle=orthogonalEdgeStyle;rounded=0;orthogonalLoop=1;jettySize=auto;html=1;entryX=0;entryY=0.5;entryDx=0;entryDy=0;" parent="1" source="4LsymIjCZTTFca7TZVZm-174" target="4LsymIjCZTTFca7TZVZm-177" edge="1">
          <mxGeometry relative="1" as="geometry" />
        </mxCell>
        <mxCell id="4LsymIjCZTTFca7TZVZm-174" value="Load User / Group&lt;div&gt;List + Activate Input&lt;/div&gt;" style="rounded=1;whiteSpace=wrap;html=1;" parent="1" vertex="1">
          <mxGeometry x="800" y="-40" width="120" height="40" as="geometry" />
        </mxCell>
        <mxCell id="4LsymIjCZTTFca7TZVZm-179" style="edgeStyle=orthogonalEdgeStyle;rounded=0;orthogonalLoop=1;jettySize=auto;html=1;" parent="1" source="4LsymIjCZTTFca7TZVZm-177" target="4LsymIjCZTTFca7TZVZm-178" edge="1">
          <mxGeometry relative="1" as="geometry" />
        </mxCell>
        <mxCell id="4LsymIjCZTTFca7TZVZm-180" value="No" style="edgeLabel;html=1;align=center;verticalAlign=middle;resizable=0;points=[];" parent="4LsymIjCZTTFca7TZVZm-179" vertex="1" connectable="0">
          <mxGeometry x="-0.1273" y="3" relative="1" as="geometry">
            <mxPoint as="offset" />
          </mxGeometry>
        </mxCell>
        <mxCell id="4LsymIjCZTTFca7TZVZm-183" style="edgeStyle=orthogonalEdgeStyle;rounded=0;orthogonalLoop=1;jettySize=auto;html=1;entryX=0;entryY=0.5;entryDx=0;entryDy=0;" parent="1" source="4LsymIjCZTTFca7TZVZm-177" target="4LsymIjCZTTFca7TZVZm-182" edge="1">
          <mxGeometry relative="1" as="geometry" />
        </mxCell>
        <mxCell id="4LsymIjCZTTFca7TZVZm-177" value="List Retrieved?" style="rhombus;whiteSpace=wrap;html=1;fontSize=10;" parent="1" vertex="1">
          <mxGeometry x="1000" y="-40" width="120" height="40" as="geometry" />
        </mxCell>
        <mxCell id="4LsymIjCZTTFca7TZVZm-178" value="ERR" style="strokeWidth=2;html=1;shape=mxgraph.flowchart.start_2;whiteSpace=wrap;fillColor=#f8cecc;strokeColor=#b85450;" parent="1" vertex="1">
          <mxGeometry x="1040" y="40" width="40" height="40" as="geometry" />
        </mxCell>
        <mxCell id="4LsymIjCZTTFca7TZVZm-187" style="edgeStyle=orthogonalEdgeStyle;rounded=0;orthogonalLoop=1;jettySize=auto;html=1;" parent="1" source="4LsymIjCZTTFca7TZVZm-182" target="4LsymIjCZTTFca7TZVZm-186" edge="1">
          <mxGeometry relative="1" as="geometry" />
        </mxCell>
        <mxCell id="4LsymIjCZTTFca7TZVZm-182" value="Select the User/Group" style="shape=parallelogram;perimeter=parallelogramPerimeter;whiteSpace=wrap;html=1;fixedSize=1;" parent="1" vertex="1">
          <mxGeometry x="1200" y="-40" width="120" height="40" as="geometry" />
        </mxCell>
        <mxCell id="4LsymIjCZTTFca7TZVZm-189" style="edgeStyle=orthogonalEdgeStyle;rounded=0;orthogonalLoop=1;jettySize=auto;html=1;" parent="1" source="4LsymIjCZTTFca7TZVZm-186" target="4LsymIjCZTTFca7TZVZm-188" edge="1">
          <mxGeometry relative="1" as="geometry" />
        </mxCell>
        <mxCell id="4LsymIjCZTTFca7TZVZm-186" value="Check if User/Group&lt;div&gt;has SeesAll&lt;/div&gt;" style="rounded=1;whiteSpace=wrap;html=1;" parent="1" vertex="1">
          <mxGeometry x="1400" y="-40" width="120" height="40" as="geometry" />
        </mxCell>
        <mxCell id="4LsymIjCZTTFca7TZVZm-194" value="No" style="edgeStyle=orthogonalEdgeStyle;rounded=0;orthogonalLoop=1;jettySize=auto;html=1;" parent="1" source="4LsymIjCZTTFca7TZVZm-188" target="4LsymIjCZTTFca7TZVZm-193" edge="1">
          <mxGeometry relative="1" as="geometry">
            <Array as="points">
              <mxPoint x="1660" y="-60" />
              <mxPoint x="1660" y="-60" />
            </Array>
          </mxGeometry>
        </mxCell>
        <mxCell id="4LsymIjCZTTFca7TZVZm-188" value="Has SeesAll?" style="rhombus;whiteSpace=wrap;html=1;fontSize=10;" parent="1" vertex="1">
          <mxGeometry x="1600" y="-40" width="120" height="40" as="geometry" />
        </mxCell>
        <mxCell id="4LsymIjCZTTFca7TZVZm-190" value="W: Delete the SeesAll permission before proceeding" style="strokeWidth=2;html=1;shape=mxgraph.flowchart.start_2;whiteSpace=wrap;fillColor=#fff2cc;strokeColor=#d6b656;fontSize=10;" parent="1" vertex="1">
          <mxGeometry x="1600" y="40" width="120" height="40" as="geometry" />
        </mxCell>
        <mxCell id="4LsymIjCZTTFca7TZVZm-191" style="edgeStyle=orthogonalEdgeStyle;rounded=0;orthogonalLoop=1;jettySize=auto;html=1;entryX=0.5;entryY=0;entryDx=0;entryDy=0;entryPerimeter=0;" parent="1" source="4LsymIjCZTTFca7TZVZm-188" target="4LsymIjCZTTFca7TZVZm-190" edge="1">
          <mxGeometry relative="1" as="geometry" />
        </mxCell>
        <mxCell id="4LsymIjCZTTFca7TZVZm-192" value="Yes" style="edgeLabel;html=1;align=center;verticalAlign=middle;resizable=0;points=[];" parent="4LsymIjCZTTFca7TZVZm-191" vertex="1" connectable="0">
          <mxGeometry x="0.19" y="2" relative="1" as="geometry">
            <mxPoint x="-2" y="-4" as="offset" />
          </mxGeometry>
        </mxCell>
        <mxCell id="4LsymIjCZTTFca7TZVZm-197" style="edgeStyle=orthogonalEdgeStyle;rounded=0;orthogonalLoop=1;jettySize=auto;html=1;entryX=0.5;entryY=1;entryDx=0;entryDy=0;" parent="1" source="4LsymIjCZTTFca7TZVZm-193" target="4LsymIjCZTTFca7TZVZm-195" edge="1">
          <mxGeometry relative="1" as="geometry" />
        </mxCell>
        <mxCell id="4LsymIjCZTTFca7TZVZm-193" value="Activate SeesAll and SelectField inputs" style="rounded=1;whiteSpace=wrap;html=1;" parent="1" vertex="1">
          <mxGeometry x="1600" y="-120" width="120" height="40" as="geometry" />
        </mxCell>
        <mxCell id="4LsymIjCZTTFca7TZVZm-200" style="edgeStyle=orthogonalEdgeStyle;rounded=0;orthogonalLoop=1;jettySize=auto;html=1;entryX=1;entryY=0.5;entryDx=0;entryDy=0;" parent="1" source="4LsymIjCZTTFca7TZVZm-195" target="4LsymIjCZTTFca7TZVZm-199" edge="1">
          <mxGeometry relative="1" as="geometry" />
        </mxCell>
        <mxCell id="4LsymIjCZTTFca7TZVZm-195" value="SeesAll&lt;div&gt;Toggled-on&lt;/div&gt;" style="shape=parallelogram;perimeter=parallelogramPerimeter;whiteSpace=wrap;html=1;fixedSize=1;" parent="1" vertex="1">
          <mxGeometry x="1480" y="-200" width="120" height="40" as="geometry" />
        </mxCell>
        <mxCell id="4LsymIjCZTTFca7TZVZm-231" style="edgeStyle=orthogonalEdgeStyle;rounded=0;orthogonalLoop=1;jettySize=auto;html=1;entryX=0.5;entryY=1;entryDx=0;entryDy=0;" parent="1" source="4LsymIjCZTTFca7TZVZm-196" target="4LsymIjCZTTFca7TZVZm-230" edge="1">
          <mxGeometry relative="1" as="geometry" />
        </mxCell>
        <mxCell id="4LsymIjCZTTFca7TZVZm-196" value="Select Field" style="shape=parallelogram;perimeter=parallelogramPerimeter;whiteSpace=wrap;html=1;fixedSize=1;" parent="1" vertex="1">
          <mxGeometry x="1720" y="-200" width="120" height="40" as="geometry" />
        </mxCell>
        <mxCell id="4LsymIjCZTTFca7TZVZm-198" style="edgeStyle=orthogonalEdgeStyle;rounded=0;orthogonalLoop=1;jettySize=auto;html=1;entryX=0.555;entryY=1.01;entryDx=0;entryDy=0;entryPerimeter=0;" parent="1" source="4LsymIjCZTTFca7TZVZm-193" target="4LsymIjCZTTFca7TZVZm-196" edge="1">
          <mxGeometry relative="1" as="geometry" />
        </mxCell>
        <mxCell id="4LsymIjCZTTFca7TZVZm-202" style="edgeStyle=orthogonalEdgeStyle;rounded=0;orthogonalLoop=1;jettySize=auto;html=1;entryX=1;entryY=0.5;entryDx=0;entryDy=0;" parent="1" source="4LsymIjCZTTFca7TZVZm-199" target="4LsymIjCZTTFca7TZVZm-201" edge="1">
          <mxGeometry relative="1" as="geometry">
            <mxPoint x="1210" y="-180" as="targetPoint" />
          </mxGeometry>
        </mxCell>
        <mxCell id="4LsymIjCZTTFca7TZVZm-199" value="Check existing Permission for U/G" style="rounded=1;whiteSpace=wrap;html=1;" parent="1" vertex="1">
          <mxGeometry x="1280" y="-200" width="120" height="40" as="geometry" />
        </mxCell>
        <mxCell id="4LsymIjCZTTFca7TZVZm-204" style="edgeStyle=orthogonalEdgeStyle;rounded=0;orthogonalLoop=1;jettySize=auto;html=1;" parent="1" source="4LsymIjCZTTFca7TZVZm-201" target="4LsymIjCZTTFca7TZVZm-203" edge="1">
          <mxGeometry relative="1" as="geometry" />
        </mxCell>
        <mxCell id="4LsymIjCZTTFca7TZVZm-205" value="Yes" style="edgeLabel;html=1;align=center;verticalAlign=middle;resizable=0;points=[];" parent="4LsymIjCZTTFca7TZVZm-204" vertex="1" connectable="0">
          <mxGeometry x="-0.17" y="2" relative="1" as="geometry">
            <mxPoint as="offset" />
          </mxGeometry>
        </mxCell>
        <mxCell id="4LsymIjCZTTFca7TZVZm-207" style="edgeStyle=orthogonalEdgeStyle;rounded=0;orthogonalLoop=1;jettySize=auto;html=1;" parent="1" source="4LsymIjCZTTFca7TZVZm-201" target="4LsymIjCZTTFca7TZVZm-206" edge="1">
          <mxGeometry relative="1" as="geometry" />
        </mxCell>
        <mxCell id="4LsymIjCZTTFca7TZVZm-210" value="No" style="edgeLabel;html=1;align=center;verticalAlign=middle;resizable=0;points=[];" parent="4LsymIjCZTTFca7TZVZm-207" vertex="1" connectable="0">
          <mxGeometry x="0.126" y="-2" relative="1" as="geometry">
            <mxPoint as="offset" />
          </mxGeometry>
        </mxCell>
        <mxCell id="4LsymIjCZTTFca7TZVZm-201" value="Existing&lt;div&gt;Permissions?&lt;/div&gt;" style="rhombus;whiteSpace=wrap;html=1;fontSize=10;" parent="1" vertex="1">
          <mxGeometry x="1080" y="-200" width="120" height="40" as="geometry" />
        </mxCell>
        <mxCell id="4LsymIjCZTTFca7TZVZm-214" style="edgeStyle=orthogonalEdgeStyle;rounded=0;orthogonalLoop=1;jettySize=auto;html=1;" parent="1" source="4LsymIjCZTTFca7TZVZm-203" target="4LsymIjCZTTFca7TZVZm-213" edge="1">
          <mxGeometry relative="1" as="geometry" />
        </mxCell>
        <mxCell id="4LsymIjCZTTFca7TZVZm-203" value="Ask Confirmation" style="strokeWidth=2;html=1;shape=mxgraph.flowchart.start_2;whiteSpace=wrap;fillColor=#fff2cc;strokeColor=#d6b656;" parent="1" vertex="1">
          <mxGeometry x="895" y="-160" width="90" height="40" as="geometry" />
        </mxCell>
        <mxCell id="4LsymIjCZTTFca7TZVZm-223" style="edgeStyle=orthogonalEdgeStyle;rounded=0;orthogonalLoop=1;jettySize=auto;html=1;" parent="1" source="4LsymIjCZTTFca7TZVZm-206" target="4LsymIjCZTTFca7TZVZm-222" edge="1">
          <mxGeometry relative="1" as="geometry" />
        </mxCell>
        <mxCell id="4LsymIjCZTTFca7TZVZm-206" value="Create SeesAll&lt;div&gt;Permission&lt;/div&gt;" style="rounded=1;whiteSpace=wrap;html=1;" parent="1" vertex="1">
          <mxGeometry x="880" y="-240" width="120" height="40" as="geometry" />
        </mxCell>
        <mxCell id="4LsymIjCZTTFca7TZVZm-216" style="edgeStyle=orthogonalEdgeStyle;rounded=0;orthogonalLoop=1;jettySize=auto;html=1;entryX=0.5;entryY=1;entryDx=0;entryDy=0;" parent="1" source="4LsymIjCZTTFca7TZVZm-213" target="4LsymIjCZTTFca7TZVZm-215" edge="1">
          <mxGeometry relative="1" as="geometry" />
        </mxCell>
        <mxCell id="4LsymIjCZTTFca7TZVZm-213" value="Delete All Existing&lt;div&gt;Permissions for U/G&lt;/div&gt;" style="rounded=1;whiteSpace=wrap;html=1;" parent="1" vertex="1">
          <mxGeometry x="680" y="-160" width="120" height="40" as="geometry" />
        </mxCell>
        <mxCell id="4LsymIjCZTTFca7TZVZm-217" style="edgeStyle=orthogonalEdgeStyle;rounded=0;orthogonalLoop=1;jettySize=auto;html=1;" parent="1" source="4LsymIjCZTTFca7TZVZm-215" target="4LsymIjCZTTFca7TZVZm-206" edge="1">
          <mxGeometry relative="1" as="geometry" />
        </mxCell>
        <mxCell id="4LsymIjCZTTFca7TZVZm-218" value="Yes" style="edgeLabel;html=1;align=center;verticalAlign=middle;resizable=0;points=[];" parent="4LsymIjCZTTFca7TZVZm-217" vertex="1" connectable="0">
          <mxGeometry x="-0.095" y="1" relative="1" as="geometry">
            <mxPoint as="offset" />
          </mxGeometry>
        </mxCell>
        <mxCell id="4LsymIjCZTTFca7TZVZm-215" value="Deletion&lt;div&gt;succeded?&lt;/div&gt;" style="rhombus;whiteSpace=wrap;html=1;fontSize=10;" parent="1" vertex="1">
          <mxGeometry x="680" y="-240" width="120" height="40" as="geometry" />
        </mxCell>
        <mxCell id="4LsymIjCZTTFca7TZVZm-219" value="ERR" style="strokeWidth=2;html=1;shape=mxgraph.flowchart.start_2;whiteSpace=wrap;fillColor=#f8cecc;strokeColor=#b85450;" parent="1" vertex="1">
          <mxGeometry x="600" y="-240" width="40" height="40" as="geometry" />
        </mxCell>
        <mxCell id="4LsymIjCZTTFca7TZVZm-220" style="edgeStyle=orthogonalEdgeStyle;rounded=0;orthogonalLoop=1;jettySize=auto;html=1;entryX=1;entryY=0.5;entryDx=0;entryDy=0;entryPerimeter=0;" parent="1" source="4LsymIjCZTTFca7TZVZm-215" target="4LsymIjCZTTFca7TZVZm-219" edge="1">
          <mxGeometry relative="1" as="geometry" />
        </mxCell>
        <mxCell id="4LsymIjCZTTFca7TZVZm-221" value="No" style="edgeLabel;html=1;align=center;verticalAlign=middle;resizable=0;points=[];" parent="4LsymIjCZTTFca7TZVZm-220" vertex="1" connectable="0">
          <mxGeometry x="-0.33" y="-4" relative="1" as="geometry">
            <mxPoint x="-6" y="4" as="offset" />
          </mxGeometry>
        </mxCell>
        <mxCell id="4LsymIjCZTTFca7TZVZm-225" style="edgeStyle=orthogonalEdgeStyle;rounded=0;orthogonalLoop=1;jettySize=auto;html=1;" parent="1" source="4LsymIjCZTTFca7TZVZm-222" target="4LsymIjCZTTFca7TZVZm-224" edge="1">
          <mxGeometry relative="1" as="geometry" />
        </mxCell>
        <mxCell id="4LsymIjCZTTFca7TZVZm-226" value="No" style="edgeLabel;html=1;align=center;verticalAlign=middle;resizable=0;points=[];" parent="4LsymIjCZTTFca7TZVZm-225" vertex="1" connectable="0">
          <mxGeometry x="0.15" relative="1" as="geometry">
            <mxPoint x="3" as="offset" />
          </mxGeometry>
        </mxCell>
        <mxCell id="4LsymIjCZTTFca7TZVZm-228" style="edgeStyle=orthogonalEdgeStyle;rounded=0;orthogonalLoop=1;jettySize=auto;html=1;" parent="1" source="4LsymIjCZTTFca7TZVZm-222" target="4LsymIjCZTTFca7TZVZm-227" edge="1">
          <mxGeometry relative="1" as="geometry" />
        </mxCell>
        <mxCell id="4LsymIjCZTTFca7TZVZm-229" value="Yes" style="edgeLabel;html=1;align=center;verticalAlign=middle;resizable=0;points=[];" parent="4LsymIjCZTTFca7TZVZm-228" vertex="1" connectable="0">
          <mxGeometry x="-0.06" y="2" relative="1" as="geometry">
            <mxPoint as="offset" />
          </mxGeometry>
        </mxCell>
        <mxCell id="4LsymIjCZTTFca7TZVZm-222" value="Creation&lt;div&gt;succeeded?&lt;/div&gt;" style="rhombus;whiteSpace=wrap;html=1;fontSize=10;" parent="1" vertex="1">
          <mxGeometry x="880" y="-320" width="120" height="40" as="geometry" />
        </mxCell>
        <mxCell id="4LsymIjCZTTFca7TZVZm-224" value="ERR" style="strokeWidth=2;html=1;shape=mxgraph.flowchart.start_2;whiteSpace=wrap;fillColor=#f8cecc;strokeColor=#b85450;" parent="1" vertex="1">
          <mxGeometry x="800" y="-320" width="40" height="40" as="geometry" />
        </mxCell>
        <mxCell id="4LsymIjCZTTFca7TZVZm-227" value="END" style="strokeWidth=2;html=1;shape=mxgraph.flowchart.start_2;whiteSpace=wrap;fillColor=#d5e8d4;strokeColor=#82b366;" parent="1" vertex="1">
          <mxGeometry x="920" y="-400" width="40" height="40" as="geometry" />
        </mxCell>
        <mxCell id="4LsymIjCZTTFca7TZVZm-233" style="edgeStyle=orthogonalEdgeStyle;rounded=0;orthogonalLoop=1;jettySize=auto;html=1;" parent="1" source="4LsymIjCZTTFca7TZVZm-230" target="4LsymIjCZTTFca7TZVZm-232" edge="1">
          <mxGeometry relative="1" as="geometry" />
        </mxCell>
        <mxCell id="4LsymIjCZTTFca7TZVZm-230" value="Check existing Permission for U/G+Field" style="rounded=1;whiteSpace=wrap;html=1;" parent="1" vertex="1">
          <mxGeometry x="1720" y="-280" width="120" height="40" as="geometry" />
        </mxCell>
        <mxCell id="4LsymIjCZTTFca7TZVZm-235" style="edgeStyle=orthogonalEdgeStyle;rounded=0;orthogonalLoop=1;jettySize=auto;html=1;entryX=0.5;entryY=1;entryDx=0;entryDy=0;" parent="1" source="4LsymIjCZTTFca7TZVZm-232" target="4LsymIjCZTTFca7TZVZm-234" edge="1">
          <mxGeometry relative="1" as="geometry" />
        </mxCell>
        <mxCell id="4LsymIjCZTTFca7TZVZm-236" value="Yes" style="edgeLabel;html=1;align=center;verticalAlign=middle;resizable=0;points=[];" parent="4LsymIjCZTTFca7TZVZm-235" vertex="1" connectable="0">
          <mxGeometry x="-0.3" relative="1" as="geometry">
            <mxPoint as="offset" />
          </mxGeometry>
        </mxCell>
        <mxCell id="4LsymIjCZTTFca7TZVZm-238" style="edgeStyle=orthogonalEdgeStyle;rounded=0;orthogonalLoop=1;jettySize=auto;html=1;entryX=0;entryY=0.5;entryDx=0;entryDy=0;" parent="1" source="4LsymIjCZTTFca7TZVZm-232" target="4LsymIjCZTTFca7TZVZm-237" edge="1">
          <mxGeometry relative="1" as="geometry" />
        </mxCell>
        <mxCell id="4LsymIjCZTTFca7TZVZm-240" value="No" style="edgeLabel;html=1;align=center;verticalAlign=middle;resizable=0;points=[];" parent="4LsymIjCZTTFca7TZVZm-238" vertex="1" connectable="0">
          <mxGeometry x="-0.2311" y="1" relative="1" as="geometry">
            <mxPoint as="offset" />
          </mxGeometry>
        </mxCell>
        <mxCell id="4LsymIjCZTTFca7TZVZm-232" value="Existing (single)&lt;div&gt;permission?&lt;/div&gt;" style="rhombus;whiteSpace=wrap;html=1;fontSize=10;" parent="1" vertex="1">
          <mxGeometry x="1720" y="-360" width="120" height="40" as="geometry" />
        </mxCell>
        <mxCell id="4LsymIjCZTTFca7TZVZm-242" style="edgeStyle=orthogonalEdgeStyle;rounded=0;orthogonalLoop=1;jettySize=auto;html=1;" parent="1" source="4LsymIjCZTTFca7TZVZm-234" target="4LsymIjCZTTFca7TZVZm-241" edge="1">
          <mxGeometry relative="1" as="geometry" />
        </mxCell>
        <mxCell id="4LsymIjCZTTFca7TZVZm-234" value="Load RLS Values in FilterValuesField" style="rounded=1;whiteSpace=wrap;html=1;" parent="1" vertex="1">
          <mxGeometry x="1720" y="-440" width="120" height="40" as="geometry" />
        </mxCell>
        <mxCell id="4LsymIjCZTTFca7TZVZm-245" style="edgeStyle=orthogonalEdgeStyle;rounded=0;orthogonalLoop=1;jettySize=auto;html=1;entryX=0.5;entryY=0;entryDx=0;entryDy=0;" parent="1" source="4LsymIjCZTTFca7TZVZm-237" target="4LsymIjCZTTFca7TZVZm-244" edge="1">
          <mxGeometry relative="1" as="geometry" />
        </mxCell>
        <mxCell id="4LsymIjCZTTFca7TZVZm-237" value="Add Filter Values" style="shape=parallelogram;perimeter=parallelogramPerimeter;whiteSpace=wrap;html=1;fixedSize=1;" parent="1" vertex="1">
          <mxGeometry x="1920" y="-360" width="120" height="40" as="geometry" />
        </mxCell>
        <mxCell id="4LsymIjCZTTFca7TZVZm-243" style="edgeStyle=orthogonalEdgeStyle;rounded=0;orthogonalLoop=1;jettySize=auto;html=1;" parent="1" source="4LsymIjCZTTFca7TZVZm-241" target="4LsymIjCZTTFca7TZVZm-237" edge="1">
          <mxGeometry relative="1" as="geometry" />
        </mxCell>
        <mxCell id="4LsymIjCZTTFca7TZVZm-241" value="Change Button name to Update Permission" style="rounded=1;whiteSpace=wrap;html=1;" parent="1" vertex="1">
          <mxGeometry x="1920" y="-440" width="120" height="40" as="geometry" />
        </mxCell>
        <mxCell id="4LsymIjCZTTFca7TZVZm-247" style="edgeStyle=orthogonalEdgeStyle;rounded=0;orthogonalLoop=1;jettySize=auto;html=1;entryX=0.5;entryY=0;entryDx=0;entryDy=0;" parent="1" source="4LsymIjCZTTFca7TZVZm-244" target="4LsymIjCZTTFca7TZVZm-246" edge="1">
          <mxGeometry relative="1" as="geometry" />
        </mxCell>
        <mxCell id="4LsymIjCZTTFca7TZVZm-244" value="Create/Update permission" style="shape=parallelogram;perimeter=parallelogramPerimeter;whiteSpace=wrap;html=1;fixedSize=1;" parent="1" vertex="1">
          <mxGeometry x="1920" y="-280" width="120" height="40" as="geometry" />
        </mxCell>
        <mxCell id="4LsymIjCZTTFca7TZVZm-249" style="edgeStyle=orthogonalEdgeStyle;rounded=0;orthogonalLoop=1;jettySize=auto;html=1;" parent="1" source="4LsymIjCZTTFca7TZVZm-246" target="4LsymIjCZTTFca7TZVZm-248" edge="1">
          <mxGeometry relative="1" as="geometry" />
        </mxCell>
        <mxCell id="4LsymIjCZTTFca7TZVZm-246" value="Validate Filter Values (valid CSV format)" style="rounded=1;whiteSpace=wrap;html=1;" parent="1" vertex="1">
          <mxGeometry x="1920" y="-200" width="120" height="40" as="geometry" />
        </mxCell>
        <mxCell id="4LsymIjCZTTFca7TZVZm-251" style="edgeStyle=orthogonalEdgeStyle;rounded=0;orthogonalLoop=1;jettySize=auto;html=1;" parent="1" source="4LsymIjCZTTFca7TZVZm-248" target="4LsymIjCZTTFca7TZVZm-250" edge="1">
          <mxGeometry relative="1" as="geometry" />
        </mxCell>
        <mxCell id="4LsymIjCZTTFca7TZVZm-252" value="No" style="edgeLabel;html=1;align=center;verticalAlign=middle;resizable=0;points=[];" parent="4LsymIjCZTTFca7TZVZm-251" vertex="1" connectable="0">
          <mxGeometry x="-0.35" relative="1" as="geometry">
            <mxPoint as="offset" />
          </mxGeometry>
        </mxCell>
        <mxCell id="4LsymIjCZTTFca7TZVZm-254" style="edgeStyle=orthogonalEdgeStyle;rounded=0;orthogonalLoop=1;jettySize=auto;html=1;entryX=0.5;entryY=0;entryDx=0;entryDy=0;" parent="1" source="4LsymIjCZTTFca7TZVZm-248" target="4LsymIjCZTTFca7TZVZm-253" edge="1">
          <mxGeometry relative="1" as="geometry" />
        </mxCell>
        <mxCell id="4LsymIjCZTTFca7TZVZm-248" value="Valid Input?" style="rhombus;whiteSpace=wrap;html=1;fontSize=10;" parent="1" vertex="1">
          <mxGeometry x="1920" y="-120" width="120" height="40" as="geometry" />
        </mxCell>
        <mxCell id="4LsymIjCZTTFca7TZVZm-250" value="W" style="strokeWidth=2;html=1;shape=mxgraph.flowchart.start_2;whiteSpace=wrap;fillColor=#fff2cc;strokeColor=#d6b656;" parent="1" vertex="1">
          <mxGeometry x="2080" y="-120" width="40" height="40" as="geometry" />
        </mxCell>
        <mxCell id="4LsymIjCZTTFca7TZVZm-255" style="edgeStyle=orthogonalEdgeStyle;rounded=0;orthogonalLoop=1;jettySize=auto;html=1;" parent="1" source="4LsymIjCZTTFca7TZVZm-253" target="4LsymIjCZTTFca7TZVZm-23" edge="1">
          <mxGeometry relative="1" as="geometry">
            <Array as="points">
              <mxPoint x="1840" y="-20" />
              <mxPoint x="1840" y="120" />
              <mxPoint x="860" y="120" />
            </Array>
          </mxGeometry>
        </mxCell>
        <mxCell id="4LsymIjCZTTFca7TZVZm-257" value="Update" style="edgeLabel;html=1;align=center;verticalAlign=middle;resizable=0;points=[];" parent="4LsymIjCZTTFca7TZVZm-255" vertex="1" connectable="0">
          <mxGeometry x="-0.9606" y="2" relative="1" as="geometry">
            <mxPoint x="-14" y="-2" as="offset" />
          </mxGeometry>
        </mxCell>
        <mxCell id="4LsymIjCZTTFca7TZVZm-259" style="edgeStyle=orthogonalEdgeStyle;rounded=0;orthogonalLoop=1;jettySize=auto;html=1;" parent="1" source="4LsymIjCZTTFca7TZVZm-253" target="4LsymIjCZTTFca7TZVZm-258" edge="1">
          <mxGeometry relative="1" as="geometry" />
        </mxCell>
        <mxCell id="4LsymIjCZTTFca7TZVZm-253" value="Create / Update?" style="rhombus;whiteSpace=wrap;html=1;fontSize=10;" parent="1" vertex="1">
          <mxGeometry x="1920" y="-40" width="120" height="40" as="geometry" />
        </mxCell>
        <mxCell id="4LsymIjCZTTFca7TZVZm-261" style="edgeStyle=orthogonalEdgeStyle;rounded=0;orthogonalLoop=1;jettySize=auto;html=1;" parent="1" source="4LsymIjCZTTFca7TZVZm-258" target="4LsymIjCZTTFca7TZVZm-260" edge="1">
          <mxGeometry relative="1" as="geometry" />
        </mxCell>
        <mxCell id="4LsymIjCZTTFca7TZVZm-262" value="No" style="edgeLabel;html=1;align=center;verticalAlign=middle;resizable=0;points=[];" parent="4LsymIjCZTTFca7TZVZm-261" vertex="1" connectable="0">
          <mxGeometry x="-0.31" y="1" relative="1" as="geometry">
            <mxPoint as="offset" />
          </mxGeometry>
        </mxCell>
        <mxCell id="4LsymIjCZTTFca7TZVZm-266" style="edgeStyle=orthogonalEdgeStyle;rounded=0;orthogonalLoop=1;jettySize=auto;html=1;" parent="1" source="4LsymIjCZTTFca7TZVZm-258" target="4LsymIjCZTTFca7TZVZm-66" edge="1">
          <mxGeometry relative="1" as="geometry">
            <Array as="points">
              <mxPoint x="1980" y="160" />
              <mxPoint x="1720" y="160" />
              <mxPoint x="1720" y="500" />
              <mxPoint x="1160" y="500" />
            </Array>
          </mxGeometry>
        </mxCell>
        <mxCell id="4LsymIjCZTTFca7TZVZm-263" style="edgeStyle=orthogonalEdgeStyle;rounded=0;orthogonalLoop=1;jettySize=auto;html=1;" parent="1" source="4LsymIjCZTTFca7TZVZm-258" target="4LsymIjCZTTFca7TZVZm-40" edge="1">
          <mxGeometry relative="1" as="geometry">
            <Array as="points">
              <mxPoint x="1980" y="160" />
              <mxPoint x="1260" y="160" />
            </Array>
          </mxGeometry>
        </mxCell>
        <mxCell id="4LsymIjCZTTFca7TZVZm-265" value="Yes" style="edgeLabel;html=1;align=center;verticalAlign=middle;resizable=0;points=[];" parent="4LsymIjCZTTFca7TZVZm-263" vertex="1" connectable="0">
          <mxGeometry x="-0.9304" y="-1" relative="1" as="geometry">
            <mxPoint as="offset" />
          </mxGeometry>
        </mxCell>
        <mxCell id="4LsymIjCZTTFca7TZVZm-258" value="Creation&lt;div&gt;succeded&lt;/div&gt;" style="rhombus;whiteSpace=wrap;html=1;fontSize=10;" parent="1" vertex="1">
          <mxGeometry x="1920" y="40" width="120" height="40" as="geometry" />
        </mxCell>
        <mxCell id="4LsymIjCZTTFca7TZVZm-260" value="ERR" style="strokeWidth=2;html=1;shape=mxgraph.flowchart.start_2;whiteSpace=wrap;fillColor=#f8cecc;strokeColor=#b85450;" parent="1" vertex="1">
          <mxGeometry x="2080" y="40" width="40" height="40" as="geometry" />
        </mxCell>
        <mxCell id="4LsymIjCZTTFca7TZVZm-270" value="" style="shadow=0;dashed=0;html=1;strokeColor=none;fillColor=#EF8F21;labelPosition=center;verticalLabelPosition=bottom;verticalAlign=top;align=center;outlineConnect=0;shape=mxgraph.veeam.checked;" parent="1" vertex="1">
          <mxGeometry x="484" y="230" width="36" height="36" as="geometry" />
        </mxCell>
        <mxCell id="4LsymIjCZTTFca7TZVZm-271" value="" style="shadow=0;dashed=0;html=1;strokeColor=none;fillColor=#EF8F21;labelPosition=center;verticalLabelPosition=bottom;verticalAlign=top;align=center;outlineConnect=0;shape=mxgraph.veeam.checked;" parent="1" vertex="1">
          <mxGeometry x="490" y="470" width="36" height="36" as="geometry" />
        </mxCell>
      </root>
    </mxGraphModel>
  </diagram>
  <diagram id="VKc3viXOKpLQR7XMAofv" name="SetAccount">
    <mxGraphModel dx="1979" dy="2239" grid="1" gridSize="10" guides="1" tooltips="1" connect="1" arrows="1" fold="1" page="1" pageScale="1" pageWidth="827" pageHeight="1169" math="0" shadow="0">
      <root>
        <mxCell id="0" />
        <mxCell id="1" parent="0" />
        <mxCell id="wdTiv7wCokqXAgKqebPx-2" style="edgeStyle=orthogonalEdgeStyle;rounded=0;orthogonalLoop=1;jettySize=auto;html=1;" edge="1" parent="1" source="KgYWUCPoMcqtFmIZYzbk-1">
          <mxGeometry relative="1" as="geometry">
            <mxPoint x="100" y="-1040" as="targetPoint" />
          </mxGeometry>
        </mxCell>
        <mxCell id="KgYWUCPoMcqtFmIZYzbk-1" value="START" style="strokeWidth=2;html=1;shape=mxgraph.flowchart.start_2;whiteSpace=wrap;fillColor=#dae8fc;strokeColor=#6c8ebf;" vertex="1" parent="1">
          <mxGeometry x="80" y="-1120" width="40" height="40" as="geometry" />
        </mxCell>
        <mxCell id="Kc6vqI0uo5tguSK274JX-2" style="edgeStyle=orthogonalEdgeStyle;rounded=0;orthogonalLoop=1;jettySize=auto;html=1;" edge="1" parent="1">
          <mxGeometry relative="1" as="geometry">
            <mxPoint x="100" y="-960" as="sourcePoint" />
            <mxPoint x="100" y="-910" as="targetPoint" />
          </mxGeometry>
        </mxCell>
        <mxCell id="Or35VimHU8cA24GxtcPN-4" value="" style="edgeStyle=orthogonalEdgeStyle;rounded=0;orthogonalLoop=1;jettySize=auto;html=1;" edge="1" parent="1" source="hsUmuTzuOScm_HiJ4tDG-6" target="Or35VimHU8cA24GxtcPN-1">
          <mxGeometry relative="1" as="geometry">
            <mxPoint x="175" y="-880" as="sourcePoint" />
          </mxGeometry>
        </mxCell>
        <mxCell id="Or35VimHU8cA24GxtcPN-5" value="No" style="edgeLabel;html=1;align=center;verticalAlign=middle;resizable=0;points=[];" vertex="1" connectable="0" parent="Or35VimHU8cA24GxtcPN-4">
          <mxGeometry x="-0.1077" y="1" relative="1" as="geometry">
            <mxPoint y="1" as="offset" />
          </mxGeometry>
        </mxCell>
        <mxCell id="Or35VimHU8cA24GxtcPN-1" value="W/E" style="strokeWidth=2;html=1;shape=mxgraph.flowchart.start_2;whiteSpace=wrap;fillColor=#f8cecc;strokeColor=#b85450;" vertex="1" parent="1">
          <mxGeometry x="240" y="-840" width="40" height="40" as="geometry" />
        </mxCell>
        <mxCell id="Or35VimHU8cA24GxtcPN-6" style="edgeStyle=orthogonalEdgeStyle;rounded=0;orthogonalLoop=1;jettySize=auto;html=1;entryX=1;entryY=0.5;entryDx=0;entryDy=0;entryPerimeter=0;" edge="1" parent="1" source="Or35VimHU8cA24GxtcPN-1" target="KgYWUCPoMcqtFmIZYzbk-1">
          <mxGeometry relative="1" as="geometry">
            <Array as="points">
              <mxPoint x="260" y="-1100" />
            </Array>
          </mxGeometry>
        </mxCell>
        <mxCell id="hsUmuTzuOScm_HiJ4tDG-1" value="Select QS Management Region&amp;nbsp;&lt;div&gt;+ Select AWS Regions to be managed by RLS Tool&amp;nbsp;&lt;/div&gt;" style="shape=parallelogram;perimeter=parallelogramPerimeter;whiteSpace=wrap;html=1;fixedSize=1;" vertex="1" parent="1">
          <mxGeometry y="-1040" width="200" height="80" as="geometry" />
        </mxCell>
        <mxCell id="8zOGPww0g7Jz9hhfclmo-8" style="edgeStyle=orthogonalEdgeStyle;rounded=0;orthogonalLoop=1;jettySize=auto;html=1;entryX=0.5;entryY=0;entryDx=0;entryDy=0;" edge="1" parent="1" source="hsUmuTzuOScm_HiJ4tDG-6" target="7wsvH9hGjW1kdH0r2esA-2">
          <mxGeometry relative="1" as="geometry">
            <mxPoint x="140" y="-770" as="targetPoint" />
            <Array as="points">
              <mxPoint x="100" y="-770" />
              <mxPoint x="100" y="-770" />
            </Array>
          </mxGeometry>
        </mxCell>
        <mxCell id="8zOGPww0g7Jz9hhfclmo-9" value="Yes" style="edgeLabel;html=1;align=center;verticalAlign=middle;resizable=0;points=[];" vertex="1" connectable="0" parent="8zOGPww0g7Jz9hhfclmo-8">
          <mxGeometry relative="1" as="geometry">
            <mxPoint as="offset" />
          </mxGeometry>
        </mxCell>
        <mxCell id="hsUmuTzuOScm_HiJ4tDG-6" value="Valid QS Management&lt;div&gt;Region?&lt;/div&gt;" style="rhombus;whiteSpace=wrap;html=1;fontSize=10;" vertex="1" parent="1">
          <mxGeometry x="5" y="-840" width="190" height="40" as="geometry" />
        </mxCell>
        <mxCell id="8zOGPww0g7Jz9hhfclmo-2" style="edgeStyle=orthogonalEdgeStyle;rounded=0;orthogonalLoop=1;jettySize=auto;html=1;" edge="1" parent="1" source="8zOGPww0g7Jz9hhfclmo-1" target="hsUmuTzuOScm_HiJ4tDG-6">
          <mxGeometry relative="1" as="geometry" />
        </mxCell>
        <mxCell id="8zOGPww0g7Jz9hhfclmo-1" value="input Validation" style="rounded=1;whiteSpace=wrap;html=1;" vertex="1" parent="1">
          <mxGeometry x="40" y="-920" width="120" height="40" as="geometry" />
        </mxCell>
        <mxCell id="8zOGPww0g7Jz9hhfclmo-5" style="edgeStyle=orthogonalEdgeStyle;rounded=0;orthogonalLoop=1;jettySize=auto;html=1;" edge="1" parent="1" source="8zOGPww0g7Jz9hhfclmo-3" target="8zOGPww0g7Jz9hhfclmo-4">
          <mxGeometry relative="1" as="geometry" />
        </mxCell>
        <mxCell id="8zOGPww0g7Jz9hhfclmo-6" value="No" style="edgeLabel;html=1;align=center;verticalAlign=middle;resizable=0;points=[];" vertex="1" connectable="0" parent="8zOGPww0g7Jz9hhfclmo-5">
          <mxGeometry x="-0.1333" relative="1" as="geometry">
            <mxPoint as="offset" />
          </mxGeometry>
        </mxCell>
        <mxCell id="8zOGPww0g7Jz9hhfclmo-3" value="Valid Regions to be&lt;div&gt;Managed?&lt;/div&gt;" style="rhombus;whiteSpace=wrap;html=1;fontSize=10;" vertex="1" parent="1">
          <mxGeometry x="-160" y="-510" width="190" height="40" as="geometry" />
        </mxCell>
        <mxCell id="8zOGPww0g7Jz9hhfclmo-4" value="W" style="strokeWidth=2;html=1;shape=mxgraph.flowchart.start_2;whiteSpace=wrap;fillColor=#fff2cc;strokeColor=#d6b656;" vertex="1" parent="1">
          <mxGeometry x="75" y="-510" width="40" height="40" as="geometry" />
        </mxCell>
        <mxCell id="8zOGPww0g7Jz9hhfclmo-10" value="&lt;span style=&quot;font-family: Menlo, Monaco, &amp;quot;Courier New&amp;quot;, monospace; white-space: pre;&quot;&gt;&lt;font style=&quot;color: light-dark(rgb(201, 34, 34), rgb(54, 54, 11));&quot;&gt;checkValidQsManagementRegion&lt;/font&gt;&lt;/span&gt;&lt;div&gt;Not Empty&lt;/div&gt;&lt;div&gt;Valid Region Name&lt;/div&gt;&lt;div&gt;Permissions &amp;amp; Region is the correct one&lt;/div&gt;" style="rounded=0;whiteSpace=wrap;html=1;fillColor=#f5f5f5;strokeColor=#666666;fontColor=#333333;" vertex="1" parent="1">
          <mxGeometry x="-320" y="-930" width="240" height="60" as="geometry" />
        </mxCell>
        <mxCell id="7wsvH9hGjW1kdH0r2esA-2" value="Account Setup" style="rounded=1;whiteSpace=wrap;html=1;" vertex="1" parent="1">
          <mxGeometry x="40" y="-760" width="120" height="40" as="geometry" />
        </mxCell>
        <mxCell id="7wsvH9hGjW1kdH0r2esA-3" value="&lt;span style=&quot;font-family: Menlo, Monaco, &amp;quot;Courier New&amp;quot;, monospace; white-space: pre;&quot;&gt;&lt;font style=&quot;color: rgb(201, 34, 34);&quot;&gt;setAccount&lt;/font&gt;&lt;/span&gt;&lt;div&gt;QS Management Region SET&lt;/div&gt;&lt;div&gt;Namespaces, Groups and Users&lt;/div&gt;&lt;div&gt;counters = 0&lt;/div&gt;" style="rounded=0;whiteSpace=wrap;html=1;fillColor=#f5f5f5;strokeColor=#666666;fontColor=#333333;" vertex="1" parent="1">
          <mxGeometry x="-320" y="-770" width="240" height="60" as="geometry" />
        </mxCell>
        <mxCell id="7wsvH9hGjW1kdH0r2esA-4" style="edgeStyle=orthogonalEdgeStyle;rounded=0;orthogonalLoop=1;jettySize=auto;html=1;dashed=1;dashPattern=1 2;endArrow=oval;startFill=0;endFill=0;exitX=0;exitY=0.5;exitDx=0;exitDy=0;entryX=1;entryY=0.5;entryDx=0;entryDy=0;" edge="1" parent="1" source="7wsvH9hGjW1kdH0r2esA-2" target="7wsvH9hGjW1kdH0r2esA-3">
          <mxGeometry relative="1" as="geometry">
            <mxPoint x="50" y="-890" as="sourcePoint" />
            <mxPoint x="-70" y="-890" as="targetPoint" />
          </mxGeometry>
        </mxCell>
        <mxCell id="7wsvH9hGjW1kdH0r2esA-5" style="edgeStyle=orthogonalEdgeStyle;rounded=0;orthogonalLoop=1;jettySize=auto;html=1;dashed=1;dashPattern=1 2;endArrow=oval;startFill=0;endFill=0;entryX=1;entryY=0.5;entryDx=0;entryDy=0;exitX=0;exitY=0.5;exitDx=0;exitDy=0;" edge="1" parent="1" source="8zOGPww0g7Jz9hhfclmo-1" target="8zOGPww0g7Jz9hhfclmo-10">
          <mxGeometry relative="1" as="geometry">
            <mxPoint x="10" y="-870" as="sourcePoint" />
            <mxPoint x="-50" y="-880" as="targetPoint" />
          </mxGeometry>
        </mxCell>
        <mxCell id="7wsvH9hGjW1kdH0r2esA-9" value="" style="group" vertex="1" connectable="0" parent="1">
          <mxGeometry x="-330" y="-780" width="20" height="20" as="geometry" />
        </mxCell>
        <mxCell id="7wsvH9hGjW1kdH0r2esA-7" value="" style="ellipse;whiteSpace=wrap;html=1;strokeColor=none;" vertex="1" parent="7wsvH9hGjW1kdH0r2esA-9">
          <mxGeometry width="20" height="20" as="geometry" />
        </mxCell>
        <mxCell id="7wsvH9hGjW1kdH0r2esA-8" value="" style="sketch=0;outlineConnect=0;fontColor=#232F3E;gradientColor=none;fillColor=#ED7100;strokeColor=none;dashed=0;verticalLabelPosition=bottom;verticalAlign=top;align=center;html=1;fontSize=12;fontStyle=0;aspect=fixed;pointerEvents=1;shape=mxgraph.aws4.lambda_function;" vertex="1" parent="7wsvH9hGjW1kdH0r2esA-9">
          <mxGeometry width="20" height="20" as="geometry" />
        </mxCell>
      </root>
    </mxGraphModel>
  </diagram>
  <diagram id="1xNnj1F0SNLXjyA11Iae" name="hook-qs_fetchNamespaces">
    <mxGraphModel dx="1979" dy="2239" grid="1" gridSize="10" guides="1" tooltips="1" connect="1" arrows="1" fold="1" page="1" pageScale="1" pageWidth="827" pageHeight="1169" math="0" shadow="0">
      <root>
        <mxCell id="0" />
        <mxCell id="1" parent="0" />
        <mxCell id="QEMaZ65onzLgIMEahXMA-3" style="edgeStyle=orthogonalEdgeStyle;rounded=0;orthogonalLoop=1;jettySize=auto;html=1;" edge="1" parent="1" source="QEMaZ65onzLgIMEahXMA-1" target="QEMaZ65onzLgIMEahXMA-2">
          <mxGeometry relative="1" as="geometry" />
        </mxCell>
        <mxCell id="QEMaZ65onzLgIMEahXMA-1" value="START" style="strokeWidth=2;html=1;shape=mxgraph.flowchart.start_2;whiteSpace=wrap;fillColor=#dae8fc;strokeColor=#6c8ebf;" vertex="1" parent="1">
          <mxGeometry x="120" y="-1080" width="40" height="40" as="geometry" />
        </mxCell>
        <mxCell id="QEMaZ65onzLgIMEahXMA-8" style="edgeStyle=orthogonalEdgeStyle;rounded=0;orthogonalLoop=1;jettySize=auto;html=1;" edge="1" parent="1" source="QEMaZ65onzLgIMEahXMA-2" target="QEMaZ65onzLgIMEahXMA-4">
          <mxGeometry relative="1" as="geometry" />
        </mxCell>
        <mxCell id="QEMaZ65onzLgIMEahXMA-2" value="ARGUMENTS:&lt;div&gt;qsManagementRegion&lt;/div&gt;&lt;div&gt;addLog&lt;/div&gt;&lt;div&gt;isFirstInit&lt;/div&gt;" style="rounded=1;whiteSpace=wrap;html=1;" vertex="1" parent="1">
          <mxGeometry x="40" y="-1000" width="200" height="80" as="geometry" />
        </mxCell>
        <mxCell id="QEMaZ65onzLgIMEahXMA-6" style="edgeStyle=orthogonalEdgeStyle;rounded=0;orthogonalLoop=1;jettySize=auto;html=1;" edge="1" parent="1" source="QEMaZ65onzLgIMEahXMA-4" target="QEMaZ65onzLgIMEahXMA-5">
          <mxGeometry relative="1" as="geometry" />
        </mxCell>
        <mxCell id="QEMaZ65onzLgIMEahXMA-7" value="NO" style="edgeLabel;html=1;align=center;verticalAlign=middle;resizable=0;points=[];" vertex="1" connectable="0" parent="QEMaZ65onzLgIMEahXMA-6">
          <mxGeometry x="-0.25" y="1" relative="1" as="geometry">
            <mxPoint as="offset" />
          </mxGeometry>
        </mxCell>
        <mxCell id="QEMaZ65onzLgIMEahXMA-10" style="edgeStyle=orthogonalEdgeStyle;rounded=0;orthogonalLoop=1;jettySize=auto;html=1;" edge="1" parent="1" source="QEMaZ65onzLgIMEahXMA-4" target="QEMaZ65onzLgIMEahXMA-9">
          <mxGeometry relative="1" as="geometry" />
        </mxCell>
        <mxCell id="QEMaZ65onzLgIMEahXMA-11" value="YES" style="edgeLabel;html=1;align=center;verticalAlign=middle;resizable=0;points=[];" vertex="1" connectable="0" parent="QEMaZ65onzLgIMEahXMA-10">
          <mxGeometry x="0.05" y="-2" relative="1" as="geometry">
            <mxPoint as="offset" />
          </mxGeometry>
        </mxCell>
        <mxCell id="QEMaZ65onzLgIMEahXMA-4" value="isFirstInit?" style="rhombus;whiteSpace=wrap;html=1;" vertex="1" parent="1">
          <mxGeometry x="40" y="-880" width="200" height="80" as="geometry" />
        </mxCell>
        <mxCell id="QEMaZ65onzLgIMEahXMA-12" style="edgeStyle=orthogonalEdgeStyle;rounded=0;orthogonalLoop=1;jettySize=auto;html=1;entryX=1;entryY=0.5;entryDx=0;entryDy=0;" edge="1" parent="1" source="QEMaZ65onzLgIMEahXMA-5" target="QEMaZ65onzLgIMEahXMA-9">
          <mxGeometry relative="1" as="geometry">
            <Array as="points">
              <mxPoint x="420" y="-640" />
            </Array>
          </mxGeometry>
        </mxCell>
        <mxCell id="QEMaZ65onzLgIMEahXMA-17" style="edgeStyle=orthogonalEdgeStyle;rounded=0;orthogonalLoop=1;jettySize=auto;html=1;" edge="1" parent="1" source="QEMaZ65onzLgIMEahXMA-5" target="QEMaZ65onzLgIMEahXMA-16">
          <mxGeometry relative="1" as="geometry" />
        </mxCell>
        <mxCell id="QEMaZ65onzLgIMEahXMA-18" value="API Error" style="edgeLabel;html=1;align=center;verticalAlign=middle;resizable=0;points=[];" vertex="1" connectable="0" parent="QEMaZ65onzLgIMEahXMA-17">
          <mxGeometry x="-0.3625" y="2" relative="1" as="geometry">
            <mxPoint x="14" y="2" as="offset" />
          </mxGeometry>
        </mxCell>
        <mxCell id="QEMaZ65onzLgIMEahXMA-5" value="list Namespaces from RLS Tool&lt;div&gt;&lt;br&gt;&lt;/div&gt;&lt;div&gt;&lt;div style=&quot;font-family: Menlo, Monaco, &amp;quot;Courier New&amp;quot;, monospace; line-height: 18px; white-space: pre;&quot;&gt;&lt;font style=&quot;font-size: 9px; color: light-dark(rgb(202, 37, 209), rgb(62, 62, 62));&quot;&gt;&lt;span&gt;client&lt;/span&gt;.&lt;span&gt;models&lt;/span&gt;.&lt;span&gt;Namespace&lt;/span&gt;.&lt;span&gt;list&lt;/span&gt;&lt;/font&gt;&lt;/div&gt;&lt;/div&gt;" style="rounded=1;whiteSpace=wrap;html=1;" vertex="1" parent="1">
          <mxGeometry x="320" y="-880" width="200" height="80" as="geometry" />
        </mxCell>
        <mxCell id="QEMaZ65onzLgIMEahXMA-21" style="edgeStyle=orthogonalEdgeStyle;rounded=0;orthogonalLoop=1;jettySize=auto;html=1;" edge="1" parent="1" source="QEMaZ65onzLgIMEahXMA-9" target="QEMaZ65onzLgIMEahXMA-20">
          <mxGeometry relative="1" as="geometry" />
        </mxCell>
        <mxCell id="QEMaZ65onzLgIMEahXMA-9" value="List Namespaces from QuickSight&lt;div&gt;(nextToken?)&lt;/div&gt;" style="rounded=1;whiteSpace=wrap;html=1;" vertex="1" parent="1">
          <mxGeometry x="40" y="-680" width="200" height="80" as="geometry" />
        </mxCell>
        <mxCell id="QEMaZ65onzLgIMEahXMA-16" value="E" style="ellipse;whiteSpace=wrap;html=1;aspect=fixed;fillColor=#f8cecc;strokeColor=#b85450;" vertex="1" parent="1">
          <mxGeometry x="600" y="-860" width="40" height="40" as="geometry" />
        </mxCell>
        <mxCell id="BGDdgxHAS-QF2XCsMMtI-5" style="edgeStyle=orthogonalEdgeStyle;rounded=0;orthogonalLoop=1;jettySize=auto;html=1;" edge="1" parent="1" source="QEMaZ65onzLgIMEahXMA-20" target="BGDdgxHAS-QF2XCsMMtI-4">
          <mxGeometry relative="1" as="geometry" />
        </mxCell>
        <mxCell id="QEMaZ65onzLgIMEahXMA-20" value="Fetch Namespaces from QuickSight&lt;div&gt;&lt;br&gt;&lt;/div&gt;&lt;div&gt;&lt;div style=&quot;font-family: Menlo, Monaco, &amp;quot;Courier New&amp;quot;, monospace; line-height: 18px; white-space: pre;&quot;&gt;&lt;font style=&quot;font-size: 9px; color: light-dark(rgb(237, 113, 0), rgb(62, 62, 62));&quot;&gt;&lt;span&gt;client&lt;/span&gt;.&lt;span&gt;queries&lt;/span&gt;.&lt;span&gt;fetchNamespacesFromQS&lt;/span&gt;&lt;/font&gt;&lt;/div&gt;&lt;/div&gt;" style="rounded=1;whiteSpace=wrap;html=1;" vertex="1" parent="1">
          <mxGeometry x="40" y="-560" width="200" height="80" as="geometry" />
        </mxCell>
        <mxCell id="QEMaZ65onzLgIMEahXMA-26" style="edgeStyle=orthogonalEdgeStyle;rounded=0;orthogonalLoop=1;jettySize=auto;html=1;exitX=1;exitY=0.5;exitDx=0;exitDy=0;" edge="1" parent="1" target="QEMaZ65onzLgIMEahXMA-28" source="QEMaZ65onzLgIMEahXMA-20">
          <mxGeometry relative="1" as="geometry">
            <mxPoint x="240" y="-520" as="sourcePoint" />
          </mxGeometry>
        </mxCell>
        <mxCell id="QEMaZ65onzLgIMEahXMA-27" value="Error" style="edgeLabel;html=1;align=center;verticalAlign=middle;resizable=0;points=[];" vertex="1" connectable="0" parent="QEMaZ65onzLgIMEahXMA-26">
          <mxGeometry x="-0.3625" y="2" relative="1" as="geometry">
            <mxPoint x="14" y="2" as="offset" />
          </mxGeometry>
        </mxCell>
        <mxCell id="QEMaZ65onzLgIMEahXMA-28" value="E" style="ellipse;whiteSpace=wrap;html=1;aspect=fixed;fillColor=#f8cecc;strokeColor=#b85450;" vertex="1" parent="1">
          <mxGeometry x="320" y="-540" width="40" height="40" as="geometry" />
        </mxCell>
        <mxCell id="BGDdgxHAS-QF2XCsMMtI-1" value="" style="group" vertex="1" connectable="0" parent="1">
          <mxGeometry x="30" y="-570" width="20" height="20" as="geometry" />
        </mxCell>
        <mxCell id="BGDdgxHAS-QF2XCsMMtI-2" value="" style="ellipse;whiteSpace=wrap;html=1;strokeColor=none;" vertex="1" parent="BGDdgxHAS-QF2XCsMMtI-1">
          <mxGeometry width="20" height="20" as="geometry" />
        </mxCell>
        <mxCell id="BGDdgxHAS-QF2XCsMMtI-3" value="" style="sketch=0;outlineConnect=0;fontColor=#232F3E;gradientColor=none;fillColor=#ED7100;strokeColor=none;dashed=0;verticalLabelPosition=bottom;verticalAlign=top;align=center;html=1;fontSize=12;fontStyle=0;aspect=fixed;pointerEvents=1;shape=mxgraph.aws4.lambda_function;" vertex="1" parent="BGDdgxHAS-QF2XCsMMtI-1">
          <mxGeometry width="20" height="20" as="geometry" />
        </mxCell>
        <mxCell id="BGDdgxHAS-QF2XCsMMtI-7" style="edgeStyle=orthogonalEdgeStyle;rounded=0;orthogonalLoop=1;jettySize=auto;html=1;" edge="1" parent="1" source="BGDdgxHAS-QF2XCsMMtI-4" target="BGDdgxHAS-QF2XCsMMtI-6">
          <mxGeometry relative="1" as="geometry" />
        </mxCell>
        <mxCell id="BGDdgxHAS-QF2XCsMMtI-4" value="For each NameSpace from QuickSight: Check if namespace exists in RLS Tool" style="rounded=1;whiteSpace=wrap;html=1;" vertex="1" parent="1">
          <mxGeometry x="40" y="-440" width="200" height="80" as="geometry" />
        </mxCell>
        <mxCell id="BGDdgxHAS-QF2XCsMMtI-9" style="edgeStyle=orthogonalEdgeStyle;rounded=0;orthogonalLoop=1;jettySize=auto;html=1;" edge="1" parent="1" source="BGDdgxHAS-QF2XCsMMtI-6" target="BGDdgxHAS-QF2XCsMMtI-8">
          <mxGeometry relative="1" as="geometry" />
        </mxCell>
        <mxCell id="BGDdgxHAS-QF2XCsMMtI-10" value="No" style="edgeLabel;html=1;align=center;verticalAlign=middle;resizable=0;points=[];" vertex="1" connectable="0" parent="BGDdgxHAS-QF2XCsMMtI-9">
          <mxGeometry x="-0.1622" relative="1" as="geometry">
            <mxPoint as="offset" />
          </mxGeometry>
        </mxCell>
        <mxCell id="BGDdgxHAS-QF2XCsMMtI-17" style="edgeStyle=orthogonalEdgeStyle;rounded=0;orthogonalLoop=1;jettySize=auto;html=1;" edge="1" parent="1" source="BGDdgxHAS-QF2XCsMMtI-6" target="BGDdgxHAS-QF2XCsMMtI-16">
          <mxGeometry relative="1" as="geometry" />
        </mxCell>
        <mxCell id="BGDdgxHAS-QF2XCsMMtI-18" value="Yes" style="edgeLabel;html=1;align=center;verticalAlign=middle;resizable=0;points=[];" vertex="1" connectable="0" parent="BGDdgxHAS-QF2XCsMMtI-17">
          <mxGeometry x="-0.175" y="-3" relative="1" as="geometry">
            <mxPoint as="offset" />
          </mxGeometry>
        </mxCell>
        <mxCell id="BGDdgxHAS-QF2XCsMMtI-6" value="Namespace already exists&lt;div&gt;&lt;span style=&quot;background-color: transparent; color: light-dark(rgb(0, 0, 0), rgb(255, 255, 255));&quot;&gt;in RLS Tool?&lt;/span&gt;&lt;/div&gt;" style="rhombus;whiteSpace=wrap;html=1;" vertex="1" parent="1">
          <mxGeometry x="40" y="-320" width="200" height="80" as="geometry" />
        </mxCell>
        <mxCell id="BGDdgxHAS-QF2XCsMMtI-21" style="edgeStyle=orthogonalEdgeStyle;rounded=0;orthogonalLoop=1;jettySize=auto;html=1;" edge="1" parent="1" source="BGDdgxHAS-QF2XCsMMtI-8" target="BGDdgxHAS-QF2XCsMMtI-16">
          <mxGeometry relative="1" as="geometry">
            <Array as="points">
              <mxPoint x="420" y="-160" />
            </Array>
          </mxGeometry>
        </mxCell>
        <mxCell id="BGDdgxHAS-QF2XCsMMtI-8" value="Create Namespace in RLS Tool&lt;div&gt;&lt;br&gt;&lt;/div&gt;&lt;div&gt;&lt;div style=&quot;color: rgb(204, 204, 204); background-color: rgb(31, 31, 31); font-family: Menlo, Monaco, &amp;quot;Courier New&amp;quot;, monospace; line-height: 18px; white-space: pre;&quot;&gt;&lt;font style=&quot;font-size: 9px;&quot;&gt;&lt;span style=&quot;color: rgb(79, 193, 255);&quot;&gt;client&lt;/span&gt;.&lt;span style=&quot;color: rgb(156, 220, 254);&quot;&gt;models&lt;/span&gt;.&lt;span style=&quot;color: rgb(156, 220, 254);&quot;&gt;Namespace&lt;/span&gt;.&lt;span style=&quot;color: rgb(220, 220, 170);&quot;&gt;create&lt;/span&gt;&lt;/font&gt;&lt;/div&gt;&lt;/div&gt;" style="rounded=1;whiteSpace=wrap;html=1;" vertex="1" parent="1">
          <mxGeometry x="320" y="-320" width="200" height="80" as="geometry" />
        </mxCell>
        <mxCell id="BGDdgxHAS-QF2XCsMMtI-11" style="edgeStyle=orthogonalEdgeStyle;rounded=0;orthogonalLoop=1;jettySize=auto;html=1;" edge="1" parent="1" target="BGDdgxHAS-QF2XCsMMtI-13" source="BGDdgxHAS-QF2XCsMMtI-8">
          <mxGeometry relative="1" as="geometry">
            <mxPoint x="520" y="-280" as="sourcePoint" />
          </mxGeometry>
        </mxCell>
        <mxCell id="BGDdgxHAS-QF2XCsMMtI-12" value="API Error" style="edgeLabel;html=1;align=center;verticalAlign=middle;resizable=0;points=[];" vertex="1" connectable="0" parent="BGDdgxHAS-QF2XCsMMtI-11">
          <mxGeometry x="-0.3625" y="2" relative="1" as="geometry">
            <mxPoint x="14" y="2" as="offset" />
          </mxGeometry>
        </mxCell>
        <mxCell id="BGDdgxHAS-QF2XCsMMtI-13" value="E" style="ellipse;whiteSpace=wrap;html=1;aspect=fixed;fillColor=#f8cecc;strokeColor=#b85450;" vertex="1" parent="1">
          <mxGeometry x="600" y="-300" width="40" height="40" as="geometry" />
        </mxCell>
        <mxCell id="BGDdgxHAS-QF2XCsMMtI-19" style="edgeStyle=orthogonalEdgeStyle;rounded=0;orthogonalLoop=1;jettySize=auto;html=1;entryX=0;entryY=0.5;entryDx=0;entryDy=0;" edge="1" parent="1" source="BGDdgxHAS-QF2XCsMMtI-16" target="BGDdgxHAS-QF2XCsMMtI-4">
          <mxGeometry relative="1" as="geometry">
            <Array as="points">
              <mxPoint y="-160" />
              <mxPoint y="-400" />
            </Array>
          </mxGeometry>
        </mxCell>
        <mxCell id="BGDdgxHAS-QF2XCsMMtI-20" value="No" style="edgeLabel;html=1;align=center;verticalAlign=middle;resizable=0;points=[];" vertex="1" connectable="0" parent="BGDdgxHAS-QF2XCsMMtI-19">
          <mxGeometry x="0.0107" y="2" relative="1" as="geometry">
            <mxPoint x="22" y="122" as="offset" />
          </mxGeometry>
        </mxCell>
        <mxCell id="BGDdgxHAS-QF2XCsMMtI-23" style="edgeStyle=orthogonalEdgeStyle;rounded=0;orthogonalLoop=1;jettySize=auto;html=1;" edge="1" parent="1" source="BGDdgxHAS-QF2XCsMMtI-16" target="BGDdgxHAS-QF2XCsMMtI-22">
          <mxGeometry relative="1" as="geometry" />
        </mxCell>
        <mxCell id="BGDdgxHAS-QF2XCsMMtI-24" value="Yes" style="edgeLabel;html=1;align=center;verticalAlign=middle;resizable=0;points=[];" vertex="1" connectable="0" parent="BGDdgxHAS-QF2XCsMMtI-23">
          <mxGeometry x="-0.05" relative="1" as="geometry">
            <mxPoint as="offset" />
          </mxGeometry>
        </mxCell>
        <mxCell id="BGDdgxHAS-QF2XCsMMtI-16" value="Namespaces List ended?" style="rhombus;whiteSpace=wrap;html=1;" vertex="1" parent="1">
          <mxGeometry x="40" y="-200" width="200" height="80" as="geometry" />
        </mxCell>
        <mxCell id="BGDdgxHAS-QF2XCsMMtI-25" style="edgeStyle=orthogonalEdgeStyle;rounded=0;orthogonalLoop=1;jettySize=auto;html=1;entryX=0;entryY=0.5;entryDx=0;entryDy=0;" edge="1" parent="1" source="BGDdgxHAS-QF2XCsMMtI-22" target="QEMaZ65onzLgIMEahXMA-9">
          <mxGeometry relative="1" as="geometry">
            <Array as="points">
              <mxPoint x="-40" y="-40" />
              <mxPoint x="-40" y="-640" />
            </Array>
          </mxGeometry>
        </mxCell>
        <mxCell id="BGDdgxHAS-QF2XCsMMtI-27" value="Yes" style="edgeLabel;html=1;align=center;verticalAlign=middle;resizable=0;points=[];" vertex="1" connectable="0" parent="BGDdgxHAS-QF2XCsMMtI-25">
          <mxGeometry x="-0.8921" y="1" relative="1" as="geometry">
            <mxPoint as="offset" />
          </mxGeometry>
        </mxCell>
        <mxCell id="BGDdgxHAS-QF2XCsMMtI-29" style="edgeStyle=orthogonalEdgeStyle;rounded=0;orthogonalLoop=1;jettySize=auto;html=1;" edge="1" parent="1" source="BGDdgxHAS-QF2XCsMMtI-22" target="BGDdgxHAS-QF2XCsMMtI-28">
          <mxGeometry relative="1" as="geometry" />
        </mxCell>
        <mxCell id="BGDdgxHAS-QF2XCsMMtI-22" value="QuickSight ListNamespaces&lt;div&gt;has Next Token?&lt;/div&gt;" style="rhombus;whiteSpace=wrap;html=1;" vertex="1" parent="1">
          <mxGeometry x="40" y="-80" width="200" height="80" as="geometry" />
        </mxCell>
        <mxCell id="BGDdgxHAS-QF2XCsMMtI-34" style="edgeStyle=orthogonalEdgeStyle;rounded=0;orthogonalLoop=1;jettySize=auto;html=1;" edge="1" parent="1" source="BGDdgxHAS-QF2XCsMMtI-28" target="BGDdgxHAS-QF2XCsMMtI-33">
          <mxGeometry relative="1" as="geometry" />
        </mxCell>
        <mxCell id="BGDdgxHAS-QF2XCsMMtI-28" value="Update AccountDetails with the&amp;nbsp;&lt;div&gt;total number of Namespaces retrieved&lt;div&gt;&lt;div style=&quot;line-height: 18px; color: rgb(204, 204, 204);&quot;&gt;&lt;font size=&quot;1&quot; face=&quot;Menlo, Monaco, Courier New, monospace&quot; color=&quot;#4fc1ff&quot;&gt;&lt;span style=&quot;white-space: pre; background-color: light-dark(rgb(0, 0, 0), rgb(255, 255, 255));&quot;&gt;client.models.AccountDetails.&lt;/span&gt;&lt;/font&gt;&lt;/div&gt;&lt;div style=&quot;line-height: 18px; color: rgb(204, 204, 204);&quot;&gt;&lt;font size=&quot;1&quot; face=&quot;Menlo, Monaco, Courier New, monospace&quot; color=&quot;#4fc1ff&quot;&gt;&lt;span style=&quot;white-space: pre; background-color: light-dark(rgb(0, 0, 0), rgb(255, 255, 255));&quot;&gt;update&lt;/span&gt;&lt;/font&gt;&lt;/div&gt;&lt;/div&gt;&lt;/div&gt;" style="rounded=1;whiteSpace=wrap;html=1;" vertex="1" parent="1">
          <mxGeometry x="40" y="40" width="200" height="80" as="geometry" />
        </mxCell>
        <mxCell id="BGDdgxHAS-QF2XCsMMtI-30" style="edgeStyle=orthogonalEdgeStyle;rounded=0;orthogonalLoop=1;jettySize=auto;html=1;" edge="1" parent="1" target="BGDdgxHAS-QF2XCsMMtI-32" source="BGDdgxHAS-QF2XCsMMtI-28">
          <mxGeometry relative="1" as="geometry">
            <mxPoint x="240" y="80" as="sourcePoint" />
          </mxGeometry>
        </mxCell>
        <mxCell id="BGDdgxHAS-QF2XCsMMtI-31" value="API Error" style="edgeLabel;html=1;align=center;verticalAlign=middle;resizable=0;points=[];" vertex="1" connectable="0" parent="BGDdgxHAS-QF2XCsMMtI-30">
          <mxGeometry x="-0.3625" y="2" relative="1" as="geometry">
            <mxPoint x="14" y="2" as="offset" />
          </mxGeometry>
        </mxCell>
        <mxCell id="BGDdgxHAS-QF2XCsMMtI-32" value="E" style="ellipse;whiteSpace=wrap;html=1;aspect=fixed;fillColor=#f8cecc;strokeColor=#b85450;" vertex="1" parent="1">
          <mxGeometry x="320" y="60" width="40" height="40" as="geometry" />
        </mxCell>
        <mxCell id="BGDdgxHAS-QF2XCsMMtI-36" style="edgeStyle=orthogonalEdgeStyle;rounded=0;orthogonalLoop=1;jettySize=auto;html=1;" edge="1" parent="1" source="BGDdgxHAS-QF2XCsMMtI-33" target="BGDdgxHAS-QF2XCsMMtI-35">
          <mxGeometry relative="1" as="geometry" />
        </mxCell>
        <mxCell id="BGDdgxHAS-QF2XCsMMtI-37" value="Yes" style="edgeLabel;html=1;align=center;verticalAlign=middle;resizable=0;points=[];" vertex="1" connectable="0" parent="BGDdgxHAS-QF2XCsMMtI-36">
          <mxGeometry x="-0.05" y="-2" relative="1" as="geometry">
            <mxPoint y="-2" as="offset" />
          </mxGeometry>
        </mxCell>
        <mxCell id="BGDdgxHAS-QF2XCsMMtI-60" style="edgeStyle=orthogonalEdgeStyle;rounded=0;orthogonalLoop=1;jettySize=auto;html=1;" edge="1" parent="1" source="BGDdgxHAS-QF2XCsMMtI-33" target="BGDdgxHAS-QF2XCsMMtI-59">
          <mxGeometry relative="1" as="geometry" />
        </mxCell>
        <mxCell id="BGDdgxHAS-QF2XCsMMtI-61" value="No" style="edgeLabel;html=1;align=center;verticalAlign=middle;resizable=0;points=[];" vertex="1" connectable="0" parent="BGDdgxHAS-QF2XCsMMtI-60">
          <mxGeometry x="-0.0025" y="-1" relative="1" as="geometry">
            <mxPoint as="offset" />
          </mxGeometry>
        </mxCell>
        <mxCell id="BGDdgxHAS-QF2XCsMMtI-33" value="Are there Namespaces to be removed from RLS Tool?" style="rhombus;whiteSpace=wrap;html=1;" vertex="1" parent="1">
          <mxGeometry x="40" y="160" width="200" height="80" as="geometry" />
        </mxCell>
        <mxCell id="BGDdgxHAS-QF2XCsMMtI-42" style="edgeStyle=orthogonalEdgeStyle;rounded=0;orthogonalLoop=1;jettySize=auto;html=1;entryX=0.5;entryY=0;entryDx=0;entryDy=0;" edge="1" parent="1" source="BGDdgxHAS-QF2XCsMMtI-35" target="BGDdgxHAS-QF2XCsMMtI-45">
          <mxGeometry relative="1" as="geometry" />
        </mxCell>
        <mxCell id="BGDdgxHAS-QF2XCsMMtI-35" value="Delete Namespace in RLS Tool&lt;div&gt;&lt;br&gt;&lt;/div&gt;&lt;div&gt;&lt;div style=&quot;color: rgb(204, 204, 204); background-color: rgb(31, 31, 31); font-family: Menlo, Monaco, &amp;quot;Courier New&amp;quot;, monospace; line-height: 18px; white-space: pre;&quot;&gt;&lt;div style=&quot;line-height: 18px;&quot;&gt;&lt;font style=&quot;font-size: 9px;&quot;&gt;&lt;span style=&quot;color: rgb(79, 193, 255);&quot;&gt;client&lt;/span&gt;.&lt;span style=&quot;color: rgb(156, 220, 254);&quot;&gt;models&lt;/span&gt;.&lt;span style=&quot;color: rgb(156, 220, 254);&quot;&gt;Namespace&lt;/span&gt;.&lt;span style=&quot;color: rgb(220, 220, 170);&quot;&gt;delete&lt;/span&gt;&lt;/font&gt;&lt;/div&gt;&lt;/div&gt;&lt;/div&gt;" style="rounded=1;whiteSpace=wrap;html=1;" vertex="1" parent="1">
          <mxGeometry x="320" y="160" width="200" height="80" as="geometry" />
        </mxCell>
        <mxCell id="BGDdgxHAS-QF2XCsMMtI-38" style="edgeStyle=orthogonalEdgeStyle;rounded=0;orthogonalLoop=1;jettySize=auto;html=1;exitX=1;exitY=0.5;exitDx=0;exitDy=0;" edge="1" parent="1" target="BGDdgxHAS-QF2XCsMMtI-40" source="BGDdgxHAS-QF2XCsMMtI-35">
          <mxGeometry relative="1" as="geometry">
            <mxPoint x="520" y="200" as="sourcePoint" />
          </mxGeometry>
        </mxCell>
        <mxCell id="BGDdgxHAS-QF2XCsMMtI-39" value="API Error" style="edgeLabel;html=1;align=center;verticalAlign=middle;resizable=0;points=[];" vertex="1" connectable="0" parent="BGDdgxHAS-QF2XCsMMtI-38">
          <mxGeometry x="-0.3625" y="2" relative="1" as="geometry">
            <mxPoint x="14" y="2" as="offset" />
          </mxGeometry>
        </mxCell>
        <mxCell id="BGDdgxHAS-QF2XCsMMtI-40" value="E" style="ellipse;whiteSpace=wrap;html=1;aspect=fixed;fillColor=#f8cecc;strokeColor=#b85450;" vertex="1" parent="1">
          <mxGeometry x="600" y="180" width="40" height="40" as="geometry" />
        </mxCell>
        <mxCell id="BGDdgxHAS-QF2XCsMMtI-44" style="edgeStyle=orthogonalEdgeStyle;rounded=0;orthogonalLoop=1;jettySize=auto;html=1;" edge="1" parent="1" source="BGDdgxHAS-QF2XCsMMtI-41" target="BGDdgxHAS-QF2XCsMMtI-43">
          <mxGeometry relative="1" as="geometry" />
        </mxCell>
        <mxCell id="BGDdgxHAS-QF2XCsMMtI-47" value="Yes" style="edgeLabel;html=1;align=center;verticalAlign=middle;resizable=0;points=[];" vertex="1" connectable="0" parent="BGDdgxHAS-QF2XCsMMtI-44">
          <mxGeometry x="-0.175" relative="1" as="geometry">
            <mxPoint as="offset" />
          </mxGeometry>
        </mxCell>
        <mxCell id="0epw-klOXMv4xumhAi4T-2" style="edgeStyle=orthogonalEdgeStyle;rounded=0;orthogonalLoop=1;jettySize=auto;html=1;" edge="1" parent="1" source="BGDdgxHAS-QF2XCsMMtI-41" target="0epw-klOXMv4xumhAi4T-1">
          <mxGeometry relative="1" as="geometry" />
        </mxCell>
        <mxCell id="0epw-klOXMv4xumhAi4T-3" value="No" style="edgeLabel;html=1;align=center;verticalAlign=middle;resizable=0;points=[];" vertex="1" connectable="0" parent="0epw-klOXMv4xumhAi4T-2">
          <mxGeometry x="0.0429" y="-1" relative="1" as="geometry">
            <mxPoint as="offset" />
          </mxGeometry>
        </mxCell>
        <mxCell id="BGDdgxHAS-QF2XCsMMtI-41" value="Are there Groups or Users&amp;nbsp;&lt;div&gt;linked to that namespace?&lt;/div&gt;" style="rhombus;whiteSpace=wrap;html=1;" vertex="1" parent="1">
          <mxGeometry x="320" y="400" width="200" height="80" as="geometry" />
        </mxCell>
        <mxCell id="BGDdgxHAS-QF2XCsMMtI-62" style="edgeStyle=orthogonalEdgeStyle;rounded=0;orthogonalLoop=1;jettySize=auto;html=1;entryX=1;entryY=0.5;entryDx=0;entryDy=0;" edge="1" parent="1" source="BGDdgxHAS-QF2XCsMMtI-43" target="0epw-klOXMv4xumhAi4T-1">
          <mxGeometry relative="1" as="geometry">
            <Array as="points">
              <mxPoint x="620" y="680" />
            </Array>
          </mxGeometry>
        </mxCell>
        <mxCell id="BGDdgxHAS-QF2XCsMMtI-43" value="Delete Users/Groups in RLS Tool&lt;div&gt;&lt;br&gt;&lt;/div&gt;&lt;div&gt;&lt;div style=&quot;color: rgb(204, 204, 204); background-color: rgb(31, 31, 31); font-family: Menlo, Monaco, &amp;quot;Courier New&amp;quot;, monospace; line-height: 18px; white-space: pre;&quot;&gt;&lt;div style=&quot;line-height: 18px;&quot;&gt;&lt;font style=&quot;font-size: 9px;&quot;&gt;&lt;span style=&quot;color: rgb(79, 193, 255);&quot;&gt;client&lt;/span&gt;.&lt;span style=&quot;color: rgb(156, 220, 254);&quot;&gt;models&lt;/span&gt;.&lt;span style=&quot;color: rgb(156, 220, 254);&quot;&gt;Namespace&lt;/span&gt;.&lt;span style=&quot;color: rgb(220, 220, 170);&quot;&gt;delete&lt;/span&gt;&lt;/font&gt;&lt;/div&gt;&lt;/div&gt;&lt;/div&gt;" style="rounded=1;whiteSpace=wrap;html=1;" vertex="1" parent="1">
          <mxGeometry x="520" y="520" width="200" height="80" as="geometry" />
        </mxCell>
        <mxCell id="BGDdgxHAS-QF2XCsMMtI-46" style="edgeStyle=orthogonalEdgeStyle;rounded=0;orthogonalLoop=1;jettySize=auto;html=1;" edge="1" parent="1" source="BGDdgxHAS-QF2XCsMMtI-45" target="BGDdgxHAS-QF2XCsMMtI-41">
          <mxGeometry relative="1" as="geometry" />
        </mxCell>
        <mxCell id="BGDdgxHAS-QF2XCsMMtI-45" value="Fetch QS Groups/Users linked to the namespace and saved in RLS Tool&lt;div&gt;&lt;br&gt;&lt;/div&gt;&lt;div&gt;&lt;div style=&quot;color: rgb(204, 204, 204); background-color: rgb(31, 31, 31); font-family: Menlo, Monaco, &amp;quot;Courier New&amp;quot;, monospace; line-height: 18px; white-space: pre;&quot;&gt;&lt;div style=&quot;line-height: 18px;&quot;&gt;&lt;div style=&quot;line-height: 18px;&quot;&gt;&lt;font style=&quot;font-size: 9px;&quot;&gt;&lt;span style=&quot;color: rgb(79, 193, 255);&quot;&gt;client&lt;/span&gt;.&lt;span style=&quot;color: rgb(156, 220, 254);&quot;&gt;models&lt;/span&gt;.&lt;span style=&quot;color: rgb(156, 220, 254);&quot;&gt;UserGroup&lt;/span&gt;.&lt;span style=&quot;color: rgb(220, 220, 170);&quot;&gt;list&lt;/span&gt;&lt;/font&gt;&lt;/div&gt;&lt;/div&gt;&lt;/div&gt;&lt;/div&gt;" style="rounded=1;whiteSpace=wrap;html=1;" vertex="1" parent="1">
          <mxGeometry x="320" y="280" width="200" height="80" as="geometry" />
        </mxCell>
        <mxCell id="BGDdgxHAS-QF2XCsMMtI-48" style="edgeStyle=orthogonalEdgeStyle;rounded=0;orthogonalLoop=1;jettySize=auto;html=1;exitX=1;exitY=0.5;exitDx=0;exitDy=0;" edge="1" parent="1" target="BGDdgxHAS-QF2XCsMMtI-50" source="BGDdgxHAS-QF2XCsMMtI-45">
          <mxGeometry relative="1" as="geometry">
            <mxPoint x="520" y="320" as="sourcePoint" />
          </mxGeometry>
        </mxCell>
        <mxCell id="BGDdgxHAS-QF2XCsMMtI-49" value="API Error" style="edgeLabel;html=1;align=center;verticalAlign=middle;resizable=0;points=[];" vertex="1" connectable="0" parent="BGDdgxHAS-QF2XCsMMtI-48">
          <mxGeometry x="-0.3625" y="2" relative="1" as="geometry">
            <mxPoint x="14" y="2" as="offset" />
          </mxGeometry>
        </mxCell>
        <mxCell id="BGDdgxHAS-QF2XCsMMtI-50" value="E" style="ellipse;whiteSpace=wrap;html=1;aspect=fixed;fillColor=#f8cecc;strokeColor=#b85450;" vertex="1" parent="1">
          <mxGeometry x="600" y="300" width="40" height="40" as="geometry" />
        </mxCell>
        <mxCell id="BGDdgxHAS-QF2XCsMMtI-51" style="edgeStyle=orthogonalEdgeStyle;rounded=0;orthogonalLoop=1;jettySize=auto;html=1;exitX=1;exitY=0.5;exitDx=0;exitDy=0;" edge="1" parent="1" target="BGDdgxHAS-QF2XCsMMtI-53" source="BGDdgxHAS-QF2XCsMMtI-43">
          <mxGeometry relative="1" as="geometry">
            <mxPoint x="720" y="560" as="sourcePoint" />
          </mxGeometry>
        </mxCell>
        <mxCell id="BGDdgxHAS-QF2XCsMMtI-52" value="API Error" style="edgeLabel;html=1;align=center;verticalAlign=middle;resizable=0;points=[];" vertex="1" connectable="0" parent="BGDdgxHAS-QF2XCsMMtI-51">
          <mxGeometry x="-0.3625" y="2" relative="1" as="geometry">
            <mxPoint x="14" y="2" as="offset" />
          </mxGeometry>
        </mxCell>
        <mxCell id="BGDdgxHAS-QF2XCsMMtI-53" value="E" style="ellipse;whiteSpace=wrap;html=1;aspect=fixed;fillColor=#f8cecc;strokeColor=#b85450;" vertex="1" parent="1">
          <mxGeometry x="800" y="540" width="40" height="40" as="geometry" />
        </mxCell>
        <mxCell id="BGDdgxHAS-QF2XCsMMtI-58" style="edgeStyle=orthogonalEdgeStyle;rounded=0;orthogonalLoop=1;jettySize=auto;html=1;entryX=0;entryY=0.25;entryDx=0;entryDy=0;" edge="1" parent="1" source="BGDdgxHAS-QF2XCsMMtI-43" target="BGDdgxHAS-QF2XCsMMtI-43">
          <mxGeometry relative="1" as="geometry">
            <Array as="points">
              <mxPoint x="500" y="580" />
              <mxPoint x="500" y="540" />
            </Array>
          </mxGeometry>
        </mxCell>
        <mxCell id="BGDdgxHAS-QF2XCsMMtI-59" value="" style="ellipse;whiteSpace=wrap;html=1;aspect=fixed;fillColor=#d5e8d4;strokeColor=#82b366;" vertex="1" parent="1">
          <mxGeometry x="120" y="660" width="40" height="40" as="geometry" />
        </mxCell>
        <mxCell id="0epw-klOXMv4xumhAi4T-4" style="edgeStyle=orthogonalEdgeStyle;rounded=0;orthogonalLoop=1;jettySize=auto;html=1;" edge="1" parent="1" source="0epw-klOXMv4xumhAi4T-1" target="BGDdgxHAS-QF2XCsMMtI-59">
          <mxGeometry relative="1" as="geometry" />
        </mxCell>
        <mxCell id="0epw-klOXMv4xumhAi4T-5" value="No" style="edgeLabel;html=1;align=center;verticalAlign=middle;resizable=0;points=[];" vertex="1" connectable="0" parent="0epw-klOXMv4xumhAi4T-4">
          <mxGeometry x="0.1625" y="-4" relative="1" as="geometry">
            <mxPoint x="13" y="4" as="offset" />
          </mxGeometry>
        </mxCell>
        <mxCell id="0epw-klOXMv4xumhAi4T-6" style="edgeStyle=orthogonalEdgeStyle;rounded=0;orthogonalLoop=1;jettySize=auto;html=1;entryX=0.5;entryY=0;entryDx=0;entryDy=0;" edge="1" parent="1" source="0epw-klOXMv4xumhAi4T-1" target="BGDdgxHAS-QF2XCsMMtI-35">
          <mxGeometry relative="1" as="geometry">
            <Array as="points">
              <mxPoint x="420" y="760" />
              <mxPoint x="880" y="760" />
              <mxPoint x="880" y="120" />
              <mxPoint x="420" y="120" />
            </Array>
          </mxGeometry>
        </mxCell>
        <mxCell id="0epw-klOXMv4xumhAi4T-7" value="No" style="edgeLabel;html=1;align=center;verticalAlign=middle;resizable=0;points=[];" vertex="1" connectable="0" parent="0epw-klOXMv4xumhAi4T-6">
          <mxGeometry x="-0.6683" y="1" relative="1" as="geometry">
            <mxPoint y="1" as="offset" />
          </mxGeometry>
        </mxCell>
        <mxCell id="0epw-klOXMv4xumhAi4T-1" value="Are there other Namespaces&lt;div&gt;to be removed?&lt;/div&gt;" style="rhombus;whiteSpace=wrap;html=1;" vertex="1" parent="1">
          <mxGeometry x="320" y="640" width="200" height="80" as="geometry" />
        </mxCell>
        <mxCell id="Uzg_IaXj-YGbuvbNCryD-2" value="" style="sketch=0;points=[[0,0,0],[0.25,0,0],[0.5,0,0],[0.75,0,0],[1,0,0],[0,1,0],[0.25,1,0],[0.5,1,0],[0.75,1,0],[1,1,0],[0,0.25,0],[0,0.5,0],[0,0.75,0],[1,0.25,0],[1,0.5,0],[1,0.75,0]];outlineConnect=0;fontColor=#232F3E;fillColor=#C925D1;strokeColor=#ffffff;dashed=0;verticalLabelPosition=bottom;verticalAlign=top;align=center;html=1;fontSize=12;fontStyle=0;aspect=fixed;shape=mxgraph.aws4.resourceIcon;resIcon=mxgraph.aws4.dynamodb;" vertex="1" parent="1">
          <mxGeometry x="310" y="-890" width="20" height="20" as="geometry" />
        </mxCell>
        <mxCell id="Uzg_IaXj-YGbuvbNCryD-3" value="&lt;font style=&quot;color: rgb(202, 37, 209);&quot;&gt;GraphQL DynamoDB -&amp;nbsp;CA25D1&lt;/font&gt;&lt;div&gt;&lt;font style=&quot;color: rgb(237, 113, 0);&quot;&gt;Lambda F&lt;/font&gt;&lt;font style=&quot;color: rgb(237, 113, 0);&quot;&gt;&lt;font style=&quot;color: rgb(237, 113, 0);&quot;&gt;unctions&lt;/font&gt;&lt;font style=&quot;color: rgb(237, 113, 0);&quot;&gt;&amp;nbsp;-&amp;nbsp;ED7100&lt;/font&gt;&lt;/font&gt;&lt;/div&gt;&lt;div&gt;&lt;font style=&quot;color: rgb(68, 87, 255);&quot;&gt;&lt;span style=&quot;background-color: transparent;&quot;&gt;H&lt;/span&gt;&lt;span style=&quot;background-color: transparent;&quot;&gt;ooks -&amp;nbsp;&lt;/span&gt;&lt;/font&gt;&lt;span style=&quot;background-color: transparent;&quot;&gt;&lt;font color=&quot;#4457ff&quot;&gt;4457FF&lt;/font&gt;&lt;/span&gt;&lt;/div&gt;" style="text;html=1;align=left;verticalAlign=middle;whiteSpace=wrap;rounded=0;" vertex="1" parent="1">
          <mxGeometry x="-80" y="-1080" width="190" height="40" as="geometry" />
        </mxCell>
      </root>
    </mxGraphModel>
  </diagram>
</mxfile>
